<?xml version="1.0" encoding="UTF-8" standalone="no"?>
<!DOCTYPE svg PUBLIC "-//W3C//DTD SVG 1.1//EN"
 "http://www.w3.org/Graphics/SVG/1.1/DTD/svg11.dtd">
<!-- Generated by graphviz version 9.0.0 (0)
 -->
<!-- Title: [Container] HFRNet v2.0&#45;opt1 Pages: 1 -->
<svg width="1558pt" height="1534pt"
 viewBox="0.00 0.00 1557.60 1534.10" xmlns="http://www.w3.org/2000/svg" xmlns:xlink="http://www.w3.org/1999/xlink">
<g id="graph0" class="graph" transform="scale(1 1) rotate(0) translate(144 1390.1)">
<title>[Container] HFRNet v2.0&#45;opt1</title>
<polygon fill="white" stroke="none" points="-144,144 -144,-1390.1 1413.6,-1390.1 1413.6,144 -144,144"/>
<text text-anchor="middle" x="634.8" y="-5.5" font-family="Sans-Serif" font-size="15.00" fill="#2d3436">[Container] HFRNet v2.0&#45;opt1</text>
<g id="clust1" class="cluster">
<title>cluster_HFRNet 2.0</title>
<polygon fill="white" stroke="#aeb6be" stroke-dasharray="5,2" points="203.6,-376.9 203.6,-1238.1 1261.6,-1238.1 1261.6,-376.9 203.6,-376.9"/>
<text text-anchor="middle" x="243.48" y="-1222.7" font-family="Sans-Serif" font-size="12.00" fill="#2d3436">HFRNet 2.0</text>
</g>
<g id="clust2" class="cluster">
<title>cluster_Regional Association/Commercial Partner</title>
<polygon fill="white" stroke="#aeb6be" stroke-dasharray="5,2" points="219.6,-834.3 219.6,-1201.35 457.6,-1201.35 457.6,-834.3 219.6,-834.3"/>
<text text-anchor="middle" x="338.98" y="-1185.95" font-family="Sans-Serif" font-size="12.00" fill="#2d3436">Regional Association/Commercial Partner</text>
</g>
<g id="clust3" class="cluster">
<title>cluster_NCCF</title>
<polygon fill="white" stroke="#aeb6be" stroke-dasharray="5,2" points="473.6,-613.6 473.6,-1002.25 693.6,-1002.25 693.6,-613.6 473.6,-613.6"/>
<text text-anchor="middle" x="498.85" y="-986.85" font-family="Sans-Serif" font-size="12.00" fill="#2d3436">NCCF</text>
</g>
<g id="clust4" class="cluster">
<title>cluster_Dissemination ????</title>
<polygon fill="white" stroke="#aeb6be" stroke-dasharray="5,2" points="795.6,-392.9 795.6,-781.55 1245.6,-781.55 1245.6,-392.9 795.6,-392.9"/>
<text text-anchor="middle" x="856.85" y="-766.15" font-family="Sans-Serif" font-size="12.00" fill="#2d3436">Dissemination ????</text>
</g>
<g id="clust5" class="cluster">
<title>cluster_NDBC</title>
<polygon fill="white" stroke="#aeb6be" stroke-dasharray="5,2" points="516.6,-392.9 516.6,-560.85 736.6,-560.85 736.6,-392.9 516.6,-392.9"/>
<text text-anchor="middle" x="542.23" y="-545.45" font-family="Sans-Serif" font-size="12.00" fill="#2d3436">NDBC</text>
</g>
<g id="clust6" class="cluster">
<title>cluster_NCEI</title>
<polygon fill="white" stroke="#aeb6be" stroke-dasharray="5,2" points="280.6,-392.9 280.6,-560.85 500.6,-560.85 500.6,-392.9 280.6,-392.9"/>
<text text-anchor="middle" x="303.23" y="-545.45" font-family="Sans-Serif" font-size="12.00" fill="#2d3436">NCEI</text>
</g>
<!-- 25c14a2ebfba4906ac8ee7452be98f65 -->
<g id="node1" class="node">
<title>25c14a2ebfba4906ac8ee7452be98f65</title>
<polygon fill="#999999" stroke="black" points="187.2,-1186.2 0,-1186.2 0,-1071 187.2,-1071 187.2,-1186.2"/>
<text text-anchor="start" x="59.1" y="-1150.2" font-family="Sans-Serif" font-weight="bold" font-size="12.00" fill="white">HFR Station</text>
<text text-anchor="start" x="58.35" y="-1141.05" font-family="Sans-Serif" font-size="9.00" fill="white">[External System]</text>
<text text-anchor="start" x="39.98" y="-1118.1" font-family="Sans-Serif" font-size="10.00" fill="white">An HFR Station where a</text>
<text text-anchor="start" x="-3.52" y="-1108.1" font-family="Sans-Serif" font-size="10.00" fill="white">SeaSonde/WERA/LERA unit is installed and</text>
<text text-anchor="start" x="72.23" y="-1098.1" font-family="Sans-Serif" font-size="10.00" fill="white">operating.</text>
</g>
<!-- 98a1b172b788477b987ebfb8c68104a0 -->
<g id="node2" class="node">
<title>98a1b172b788477b987ebfb8c68104a0</title>
<polygon fill="#1874cd" stroke="black" points="440.2,-965.5 253,-965.5 253,-850.3 440.2,-850.3 440.2,-965.5"/>
<text text-anchor="start" x="329.73" y="-924.5" font-family="Sans-Serif" font-weight="bold" font-size="12.00" fill="white">Portal</text>
<text text-anchor="start" x="216.48" y="-915.35" font-family="Sans-Serif" font-size="9.00" fill="white">[Container: rsync, Cloud native ingest tools (lambda, Kafka, IoT)]</text>
<text text-anchor="start" x="276.85" y="-892.4" font-family="Sans-Serif" font-size="10.00" fill="white">Portal aggregates raw data from</text>
<text text-anchor="start" x="289.23" y="-882.4" font-family="Sans-Serif" font-size="10.00" fill="white">observing sites, one portal</text>
</g>
<!-- 25c14a2ebfba4906ac8ee7452be98f65&#45;&gt;98a1b172b788477b987ebfb8c68104a0 -->
<g id="edge1" class="edge">
<title>25c14a2ebfba4906ac8ee7452be98f65&#45;&gt;98a1b172b788477b987ebfb8c68104a0</title>
<path fill="none" stroke="#999999" stroke-dasharray="5,2" d="M166.82,-1063.16C186.51,-1045.92 207.82,-1027.33 227.6,-1010.25 241.59,-998.17 256.57,-985.34 271.01,-973.01"/>
<polygon fill="#999999" stroke="#999999" points="164.54,-1060.5 159.33,-1069.72 169.16,-1065.76 164.54,-1060.5"/>
<polygon fill="#999999" stroke="#999999" points="272.95,-975.96 278.28,-966.81 268.4,-970.63 272.95,-975.96"/>
<text text-anchor="start" x="227.6" y="-1028.88" font-family="Sans-Serif" font-size="10.00" fill="#2d3436">rsync raw data from many</text>
<text text-anchor="start" x="274.1" y="-1017.62" font-family="Sans-Serif" font-size="10.00" fill="#2d3436">sites</text>
</g>
<!-- 04e679283fbf4f90a4a0222a9f41e373 -->
<g id="node4" class="node">
<title>04e679283fbf4f90a4a0222a9f41e373</title>
<polygon fill="#1874cd" stroke="black" points="677.2,-744.8 490,-744.8 490,-629.6 677.2,-629.6 677.2,-744.8"/>
<text text-anchor="start" x="568.23" y="-703.8" font-family="Sans-Serif" font-weight="bold" font-size="12.00" fill="white">Node</text>
<text text-anchor="start" x="544.6" y="-694.65" font-family="Sans-Serif" font-size="9.00" fill="white">[Container: Python]</text>
<text text-anchor="start" x="504.85" y="-671.7" font-family="Sans-Serif" font-size="10.00" fill="white">Main internal processing of raw data</text>
<text text-anchor="start" x="553.98" y="-661.7" font-family="Sans-Serif" font-size="10.00" fill="white">into products.</text>
</g>
<!-- 98a1b172b788477b987ebfb8c68104a0&#45;&gt;04e679283fbf4f90a4a0222a9f41e373 -->
<g id="edge2" class="edge">
<title>98a1b172b788477b987ebfb8c68104a0&#45;&gt;04e679283fbf4f90a4a0222a9f41e373</title>
<path fill="none" stroke="#999999" stroke-dasharray="5,2" d="M402.73,-849.98C422.34,-830.52 444.68,-808.81 465.6,-789.55 478.76,-777.43 493.02,-764.8 506.91,-752.73"/>
<polygon fill="#999999" stroke="#999999" points="509.09,-755.48 514.36,-746.29 504.51,-750.18 509.09,-755.48"/>
<text text-anchor="start" x="465.6" y="-808.18" font-family="Sans-Serif" font-size="10.00" fill="#2d3436">Provides aggregated raw</text>
<text text-anchor="start" x="498.23" y="-796.93" font-family="Sans-Serif" font-size="10.00" fill="#2d3436">data files.</text>
</g>
<!-- 03cc17af85ef43b2acf55e798a534814 -->
<g id="node3" class="node">
<title>03cc17af85ef43b2acf55e798a534814</title>
<polygon fill="#1874cd" stroke="black" points="429.6,-1164.6 285.6,-1164.6 285.6,-1092.6 429.6,-1092.6 429.6,-1164.6"/>
<text text-anchor="start" x="317.48" y="-1128.7" font-family="Sans-Serif" font-weight="bold" font-size="12.00" fill="white">Portal Monitor</text>
<text text-anchor="start" x="224.85" y="-1119.55" font-family="Sans-Serif" font-size="9.00" fill="white">[Container: Monitor site health and aggregate site configurations.]</text>
</g>
<!-- 03cc17af85ef43b2acf55e798a534814&#45;&gt;98a1b172b788477b987ebfb8c68104a0 -->
<g id="edge3" class="edge">
<title>03cc17af85ef43b2acf55e798a534814&#45;&gt;98a1b172b788477b987ebfb8c68104a0</title>
<path fill="none" stroke="#999999" stroke-dasharray="5,2" d="M355.83,-1092.46C354.27,-1061.36 351.94,-1015.1 350.01,-976.79"/>
<polygon fill="#999999" stroke="#999999" points="353.53,-977.03 349.53,-967.22 346.54,-977.38 353.53,-977.03"/>
<text text-anchor="start" x="352.6" y="-1034.5" font-family="Sans-Serif" font-size="10.00" fill="#2d3436">Monitor data flow, site</text>
<text text-anchor="start" x="376.23" y="-1023.25" font-family="Sans-Serif" font-size="10.00" fill="#2d3436">health, site</text>
<text text-anchor="start" x="370.98" y="-1012" font-family="Sans-Serif" font-size="10.00" fill="#2d3436">configuration.</text>
</g>
<!-- a1b60970b27245e399d434c27a79f05d -->
<g id="node6" class="node">
<title>a1b60970b27245e399d434c27a79f05d</title>
<polygon fill="#1874cd" stroke="black" points="1108.2,-524.1 921,-524.1 921,-408.9 1108.2,-408.9 1108.2,-524.1"/>
<text text-anchor="start" x="984.6" y="-483.1" font-family="Sans-Serif" font-weight="bold" font-size="12.00" fill="white">THREDDS</text>
<text text-anchor="start" x="900.98" y="-473.95" font-family="Sans-Serif" font-size="9.00" fill="white">[Container: OPeNDAP, OGC/WMS (ncWMS), other APIs]</text>
<text text-anchor="start" x="926.1" y="-451" font-family="Sans-Serif" font-size="10.00" fill="white">Service to organize and publish products</text>
<text text-anchor="start" x="961.73" y="-441" font-family="Sans-Serif" font-size="10.00" fill="white">(e.g RTV) to customers.</text>
</g>
<!-- 04e679283fbf4f90a4a0222a9f41e373&#45;&gt;a1b60970b27245e399d434c27a79f05d -->
<g id="edge11" class="edge">
<title>04e679283fbf4f90a4a0222a9f41e373&#45;&gt;a1b60970b27245e399d434c27a79f05d</title>
<path fill="none" stroke="#999999" stroke-dasharray="5,2" d="M677.65,-638.48C746.49,-603.54 839.88,-556.16 910.88,-520.13"/>
<polygon fill="#999999" stroke="#999999" points="912.06,-523.45 919.4,-515.81 908.9,-517.21 912.06,-523.45"/>
<text text-anchor="start" x="811.6" y="-587.48" font-family="Sans-Serif" font-size="10.00" fill="#2d3436">Provide files to</text>
<text text-anchor="start" x="817.98" y="-576.23" font-family="Sans-Serif" font-size="10.00" fill="#2d3436">THREDDS.</text>
</g>
<!-- e02d0cd76ada4d3db62cca6f0b0fd4e1 -->
<g id="node7" class="node">
<title>e02d0cd76ada4d3db62cca6f0b0fd4e1</title>
<polygon fill="#1874cd" stroke="black" points="999.2,-744.8 812,-744.8 812,-629.6 999.2,-629.6 999.2,-744.8"/>
<text text-anchor="start" x="879.35" y="-703.8" font-family="Sans-Serif" font-weight="bold" font-size="12.00" fill="white">ERDDAP</text>
<text text-anchor="start" x="871.1" y="-694.65" font-family="Sans-Serif" font-size="9.00" fill="white">[Container: Java]</text>
<text text-anchor="start" x="812.23" y="-671.7" font-family="Sans-Serif" font-size="10.00" fill="white">ERRDAP server providing access to radial</text>
<text text-anchor="start" x="884.23" y="-661.7" font-family="Sans-Serif" font-size="10.00" fill="white">data files.</text>
</g>
<!-- 04e679283fbf4f90a4a0222a9f41e373&#45;&gt;e02d0cd76ada4d3db62cca6f0b0fd4e1 -->
<g id="edge14" class="edge">
<title>04e679283fbf4f90a4a0222a9f41e373&#45;&gt;e02d0cd76ada4d3db62cca6f0b0fd4e1</title>
<path fill="none" stroke="#999999" stroke-dasharray="5,2" d="M677.6,-687.2C716.12,-687.2 760.87,-687.2 800.47,-687.2"/>
<polygon fill="#999999" stroke="#999999" points="800.25,-690.7 810.25,-687.2 800.25,-683.7 800.25,-690.7"/>
<text text-anchor="start" x="698.85" y="-691.95" font-family="Sans-Serif" font-size="10.00" fill="#2d3436">FTP radials to server</text>
</g>
<!-- 83a3b670ab384faeb89d6e3fd038ac47 -->
<g id="node9" class="node">
<title>83a3b670ab384faeb89d6e3fd038ac47</title>
<polygon fill="#1874cd" stroke="black" points="720.2,-524.1 533,-524.1 533,-408.9 720.2,-408.9 720.2,-524.1"/>
<text text-anchor="start" x="590.23" y="-483.1" font-family="Sans-Serif" font-weight="bold" font-size="12.00" fill="white">Postprocess</text>
<text text-anchor="start" x="587.6" y="-473.95" font-family="Sans-Serif" font-size="9.00" fill="white">[Container: Python]</text>
<text text-anchor="start" x="548.6" y="-451" font-family="Sans-Serif" font-size="10.00" fill="white">Scripts to reformat files and push to</text>
<text text-anchor="start" x="618.35" y="-441" font-family="Sans-Serif" font-size="10.00" fill="white">TG.</text>
</g>
<!-- 04e679283fbf4f90a4a0222a9f41e373&#45;&gt;83a3b670ab384faeb89d6e3fd038ac47 -->
<g id="edge9" class="edge">
<title>04e679283fbf4f90a4a0222a9f41e373&#45;&gt;83a3b670ab384faeb89d6e3fd038ac47</title>
<path fill="none" stroke="#999999" stroke-dasharray="5,2" d="M594.79,-629.31C600.41,-600.69 607.27,-565.79 613.18,-535.74"/>
<polygon fill="#999999" stroke="#999999" points="616.61,-536.46 615.1,-525.97 609.74,-535.11 616.61,-536.46"/>
<text text-anchor="start" x="605.98" y="-587.48" font-family="Sans-Serif" font-size="10.00" fill="#2d3436">Provide files for</text>
<text text-anchor="start" x="605.6" y="-576.23" font-family="Sans-Serif" font-size="10.00" fill="#2d3436">postprocessing.</text>
</g>
<!-- fdf699fa2fd846f6bf5cfabfb6c7dc97 -->
<g id="node10" class="node">
<title>fdf699fa2fd846f6bf5cfabfb6c7dc97</title>
<polygon fill="#1874cd" stroke="black" points="484.2,-524.1 297,-524.1 297,-408.9 484.2,-408.9 484.2,-524.1"/>
<text text-anchor="start" x="352.73" y="-483.1" font-family="Sans-Serif" font-weight="bold" font-size="12.00" fill="white">NCEI Archive</text>
<text text-anchor="start" x="368.1" y="-473.95" font-family="Sans-Serif" font-size="9.00" fill="white">[Container]</text>
<text text-anchor="start" x="306.23" y="-451" font-family="Sans-Serif" font-size="10.00" fill="white">NCEI Archive for public dissemination.</text>
</g>
<!-- 04e679283fbf4f90a4a0222a9f41e373&#45;&gt;fdf699fa2fd846f6bf5cfabfb6c7dc97 -->
<g id="edge8" class="edge">
<title>04e679283fbf4f90a4a0222a9f41e373&#45;&gt;fdf699fa2fd846f6bf5cfabfb6c7dc97</title>
<path fill="none" stroke="#999999" stroke-dasharray="5,2" d="M512.29,-629.1C502.96,-620.57 493.81,-611.61 485.6,-602.6 466.43,-581.55 447.83,-556.49 432.25,-533.71"/>
<polygon fill="#999999" stroke="#999999" points="435.33,-532.03 426.84,-525.7 429.53,-535.95 435.33,-532.03"/>
<text text-anchor="start" x="485.6" y="-587.48" font-family="Sans-Serif" font-size="10.00" fill="#2d3436">Provide monthly archive</text>
<text text-anchor="start" x="495.35" y="-576.23" font-family="Sans-Serif" font-size="10.00" fill="#2d3436">package to archive.</text>
</g>
<!-- 3334de8397bf405094dcc62e14a5b469 -->
<g id="node5" class="node">
<title>3334de8397bf405094dcc62e14a5b469</title>
<polygon fill="#1874cd" stroke="black" points="677.2,-965.5 490,-965.5 490,-850.3 677.2,-850.3 677.2,-965.5"/>
<text text-anchor="start" x="544.98" y="-924.5" font-family="Sans-Serif" font-weight="bold" font-size="12.00" fill="white">Node Monitor</text>
<text text-anchor="start" x="532.98" y="-915.35" font-family="Sans-Serif" font-size="9.00" fill="white">[Container: rdbms, html, ]</text>
<text text-anchor="start" x="494.35" y="-892.4" font-family="Sans-Serif" font-size="10.00" fill="white">Monitor and report system health metrics</text>
<text text-anchor="start" x="557.35" y="-882.4" font-family="Sans-Serif" font-size="10.00" fill="white">(e.g. 80/80).</text>
</g>
<!-- 3334de8397bf405094dcc62e14a5b469&#45;&gt;04e679283fbf4f90a4a0222a9f41e373 -->
<g id="edge4" class="edge">
<title>3334de8397bf405094dcc62e14a5b469&#45;&gt;04e679283fbf4f90a4a0222a9f41e373</title>
<path fill="none" stroke="#999999" stroke-dasharray="5,2" d="M583.6,-850.01C583.6,-821.39 583.6,-786.49 583.6,-756.44"/>
<polygon fill="#999999" stroke="#999999" points="587.1,-756.7 583.6,-746.7 580.1,-756.7 587.1,-756.7"/>
<text text-anchor="start" x="585.48" y="-813.8" font-family="Sans-Serif" font-size="10.00" fill="#2d3436">Monitor data flow and</text>
<text text-anchor="start" x="583.6" y="-802.55" font-family="Sans-Serif" font-size="10.00" fill="#2d3436">calculate system wide</text>
<text text-anchor="start" x="614.73" y="-791.3" font-family="Sans-Serif" font-size="10.00" fill="#2d3436">metrics.</text>
</g>
<!-- f67cbf36df304fa0afe165a10fb06a08 -->
<g id="node12" class="node">
<title>f67cbf36df304fa0afe165a10fb06a08</title>
<polygon fill="#999999" stroke="black" points="1108.2,-319.4 921,-319.4 921,-204.2 1108.2,-204.2 1108.2,-319.4"/>
<text text-anchor="start" x="967.73" y="-278.4" font-family="Sans-Serif" font-weight="bold" font-size="12.00" fill="white">NCEP Data Tank</text>
<text text-anchor="start" x="954.6" y="-269.25" font-family="Sans-Serif" font-size="9.00" fill="white">[External System: technology]</text>
<text text-anchor="start" x="942.98" y="-246.3" font-family="Sans-Serif" font-size="10.00" fill="white">Datastore available to the NOAA</text>
<text text-anchor="start" x="927.23" y="-236.3" font-family="Sans-Serif" font-size="10.00" fill="white">Operational compute system WCOSS2.</text>
</g>
<!-- a1b60970b27245e399d434c27a79f05d&#45;&gt;f67cbf36df304fa0afe165a10fb06a08 -->
<g id="edge12" class="edge">
<title>a1b60970b27245e399d434c27a79f05d&#45;&gt;f67cbf36df304fa0afe165a10fb06a08</title>
<path fill="none" stroke="#999999" stroke-dasharray="5,2" d="M1014.6,-397.17C1014.6,-372 1014.6,-343.78 1014.6,-319.73"/>
<polygon fill="#999999" stroke="#999999" points="1011.1,-396.98 1014.6,-406.98 1018.1,-396.98 1011.1,-396.98"/>
<text text-anchor="start" x="1014.6" y="-359.4" font-family="Sans-Serif" font-size="10.00" fill="#2d3436">Access OPeNDAP to</text>
<text text-anchor="start" x="1017.97" y="-348.15" font-family="Sans-Serif" font-size="10.00" fill="#2d3436">populate data tanks.</text>
</g>
<!-- 169cb5e56f6544f59819f1215f5f5e23 -->
<g id="node8" class="node">
<title>169cb5e56f6544f59819f1215f5f5e23</title>
<polygon fill="#1874cd" stroke="black" points="1229.2,-744.8 1042,-744.8 1042,-629.6 1229.2,-629.6 1229.2,-744.8"/>
<text text-anchor="start" x="1071.85" y="-703.8" font-family="Sans-Serif" font-weight="bold" font-size="12.00" fill="white">System status website</text>
<text text-anchor="start" x="1053.47" y="-694.65" font-family="Sans-Serif" font-size="9.00" fill="white">[Container: html, OpenMaps, Javascript.]</text>
<text text-anchor="start" x="1050.47" y="-671.7" font-family="Sans-Serif" font-size="10.00" fill="white">Services that provide visualizations via</text>
<text text-anchor="start" x="1113.1" y="-661.7" font-family="Sans-Serif" font-size="10.00" fill="white">web APIs.</text>
</g>
<!-- 169cb5e56f6544f59819f1215f5f5e23&#45;&gt;03cc17af85ef43b2acf55e798a534814 -->
<g id="edge5" class="edge">
<title>169cb5e56f6544f59819f1215f5f5e23&#45;&gt;03cc17af85ef43b2acf55e798a534814</title>
<path fill="none" stroke="#999999" stroke-dasharray="5,2" d="M1106.3,-745.27C1090.84,-771.39 1070.01,-801.34 1045.6,-823.3 863.97,-986.7 580.44,-1073.78 440.9,-1108.83"/>
<polygon fill="#999999" stroke="#999999" points="440.21,-1105.39 431.35,-1111.2 441.9,-1112.19 440.21,-1105.39"/>
<text text-anchor="start" x="1028.6" y="-909.65" font-family="Sans-Serif" font-size="10.00" fill="#2d3436">Pull metrics for</text>
<text text-anchor="start" x="1033.1" y="-898.4" font-family="Sans-Serif" font-size="10.00" fill="#2d3436">visualization.</text>
</g>
<!-- 169cb5e56f6544f59819f1215f5f5e23&#45;&gt;3334de8397bf405094dcc62e14a5b469 -->
<g id="edge6" class="edge">
<title>169cb5e56f6544f59819f1215f5f5e23&#45;&gt;3334de8397bf405094dcc62e14a5b469</title>
<path fill="none" stroke="#999999" stroke-dasharray="5,2" d="M1077.17,-745.2C1060.11,-759.06 1040.63,-772.48 1020.6,-781.55 1001.3,-790.29 994.23,-784.71 973.6,-789.55 875.8,-812.49 766.44,-846.11 688.47,-871.49"/>
<polygon fill="#999999" stroke="#999999" points="687.54,-868.11 679.12,-874.55 689.71,-874.77 687.54,-868.11"/>
<text text-anchor="start" x="973.6" y="-808.18" font-family="Sans-Serif" font-size="10.00" fill="#2d3436">Pull metrics for</text>
<text text-anchor="start" x="978.1" y="-796.93" font-family="Sans-Serif" font-size="10.00" fill="#2d3436">visualization.</text>
</g>
<!-- 169cb5e56f6544f59819f1215f5f5e23&#45;&gt;a1b60970b27245e399d434c27a79f05d -->
<g id="edge7" class="edge">
<title>169cb5e56f6544f59819f1215f5f5e23&#45;&gt;a1b60970b27245e399d434c27a79f05d</title>
<path fill="none" stroke="#999999" stroke-dasharray="5,2" d="M1104.12,-629.31C1088.08,-600.31 1068.47,-564.87 1051.7,-534.55"/>
<polygon fill="#999999" stroke="#999999" points="1054.76,-532.86 1046.86,-525.81 1048.64,-536.25 1054.76,-532.86"/>
<text text-anchor="start" x="1085.6" y="-593.1" font-family="Sans-Serif" font-size="10.00" fill="#2d3436">Access OGC/WMS API</text>
<text text-anchor="start" x="1096.1" y="-581.85" font-family="Sans-Serif" font-size="10.00" fill="#2d3436">access to visualize</text>
<text text-anchor="start" x="1124.6" y="-570.6" font-family="Sans-Serif" font-size="10.00" fill="#2d3436">maps.</text>
</g>
<!-- 2238bf2568a0408496de1beae3dacffa -->
<g id="node11" class="node">
<title>2238bf2568a0408496de1beae3dacffa</title>
<polygon fill="#999999" stroke="black" points="720.2,-319.4 533,-319.4 533,-204.2 720.2,-204.2 720.2,-319.4"/>
<text text-anchor="start" x="526.1" y="-278.4" font-family="Sans-Serif" font-weight="bold" font-size="12.00" fill="white">NWS Telecommunications Gateway</text>
<text text-anchor="start" x="575.6" y="-269.25" font-family="Sans-Serif" font-size="9.00" fill="white">[External System: FS???]</text>
<text text-anchor="start" x="526.48" y="-246.3" font-family="Sans-Serif" font-size="10.00" fill="white">NWS managed gateway to the WMO GTS for</text>
<text text-anchor="start" x="567.35" y="-236.3" font-family="Sans-Serif" font-size="10.00" fill="white">international dissemination.</text>
</g>
<!-- 83a3b670ab384faeb89d6e3fd038ac47&#45;&gt;2238bf2568a0408496de1beae3dacffa -->
<g id="edge10" class="edge">
<title>83a3b670ab384faeb89d6e3fd038ac47&#45;&gt;2238bf2568a0408496de1beae3dacffa</title>
<path fill="none" stroke="#999999" stroke-dasharray="5,2" d="M626.6,-408.5C626.6,-384.43 626.6,-356.21 626.6,-331.05"/>
<polygon fill="#999999" stroke="#999999" points="630.1,-331.24 626.6,-321.24 623.1,-331.24 630.1,-331.24"/>
<text text-anchor="start" x="626.6" y="-353.77" font-family="Sans-Serif" font-size="10.00" fill="#2d3436">Provide files to NWSTG.</text>
</g>
<!-- d3b324571f5649769759beb6a41c7328 -->
<g id="node13" class="node">
<title>d3b324571f5649769759beb6a41c7328</title>
<polygon fill="#999999" stroke="black" points="720.2,-138.95 533,-138.95 533,-23.75 720.2,-23.75 720.2,-138.95"/>
<text text-anchor="start" x="597.73" y="-102.95" font-family="Sans-Serif" font-weight="bold" font-size="12.00" fill="white">WMO GTS</text>
<text text-anchor="start" x="591.35" y="-93.8" font-family="Sans-Serif" font-size="9.00" fill="white">[External System]</text>
<text text-anchor="start" x="533.98" y="-70.85" font-family="Sans-Serif" font-size="10.00" fill="white">WMO Global Telecommunications System</text>
<text text-anchor="start" x="554.98" y="-60.85" font-family="Sans-Serif" font-size="10.00" fill="white">provides access to radar data for</text>
<text text-anchor="start" x="564.73" y="-50.85" font-family="Sans-Serif" font-size="10.00" fill="white">national weather servies [...]</text>
</g>
<!-- 2238bf2568a0408496de1beae3dacffa&#45;&gt;d3b324571f5649769759beb6a41c7328 -->
<g id="edge13" class="edge">
<title>2238bf2568a0408496de1beae3dacffa&#45;&gt;d3b324571f5649769759beb6a41c7328</title>
<path fill="none" stroke="#999999" stroke-dasharray="5,2" d="M626.6,-203.85C626.6,-186.94 626.6,-168.26 626.6,-150.71"/>
<polygon fill="#999999" stroke="#999999" points="630.1,-150.89 626.6,-140.89 623.1,-150.89 630.1,-150.89"/>
<text text-anchor="start" x="626.6" y="-167.7" font-family="Sans-Serif" font-size="10.00" fill="#2d3436">Provides data to.</text>
</g>
</g>
</svg>
