<?xml version="1.0" encoding="UTF-8" standalone="no"?>
<!DOCTYPE svg PUBLIC "-//W3C//DTD SVG 1.1//EN"
 "http://www.w3.org/Graphics/SVG/1.1/DTD/svg11.dtd">
<!-- Generated by graphviz version 9.0.0 (0)
 -->
<!-- Title: [Container] HFRNet v2.0 Pages: 1 -->
<svg width="1868pt" height="830pt"
 viewBox="0.00 0.00 1868.00 830.35" xmlns="http://www.w3.org/2000/svg" xmlns:xlink="http://www.w3.org/1999/xlink">
<g id="graph0" class="graph" transform="scale(1 1) rotate(0) translate(144 686.35)">
<title>[Container] HFRNet v2.0</title>
<polygon fill="white" stroke="none" points="-144,144 -144,-686.35 1724,-686.35 1724,144 -144,144"/>
<text text-anchor="middle" x="790" y="-5.5" font-family="Sans-Serif" font-size="15.00" fill="#2d3436">[Container] HFRNet v2.0</text>
<g id="clust1" class="cluster">
<title>cluster_HFRNet 2.0</title>
<polygon fill="white" stroke="#aeb6be" stroke-dasharray="5,2" points="336.2,-155.35 336.2,-534.35 1572,-534.35 1572,-155.35 336.2,-155.35"/>
<text text-anchor="middle" x="376.07" y="-518.95" font-family="Sans-Serif" font-size="12.00" fill="#2d3436">HFRNet 2.0</text>
</g>
<g id="clust2" class="cluster">
<title>cluster_External to NOAA</title>
<polygon fill="white" stroke="#aeb6be" stroke-dasharray="5,2" points="352.2,-171.35 352.2,-339.35 571.4,-339.35 571.4,-171.35 352.2,-171.35"/>
<text text-anchor="middle" x="407.45" y="-323.95" font-family="Sans-Serif" font-size="12.00" fill="#2d3436">External to NOAA</text>
</g>
<g id="clust3" class="cluster">
<title>cluster_NCCF</title>
<polygon fill="white" stroke="#aeb6be" stroke-dasharray="5,2" points="677.4,-171.35 677.4,-339.35 896.6,-339.35 896.6,-171.35 677.4,-171.35"/>
<text text-anchor="middle" x="702.65" y="-323.95" font-family="Sans-Serif" font-size="12.00" fill="#2d3436">NCCF</text>
</g>
<g id="clust4" class="cluster">
<title>cluster_NCEI</title>
<polygon fill="white" stroke="#aeb6be" stroke-dasharray="5,2" points="1027.35,-171.35 1027.35,-497.35 1556,-497.35 1556,-171.35 1027.35,-171.35"/>
<text text-anchor="middle" x="1049.97" y="-481.95" font-family="Sans-Serif" font-size="12.00" fill="#2d3436">NCEI</text>
</g>
<!-- 1b3684eb8f574af9a74c5af3b2d4ae26 -->
<g id="node1" class="node">
<title>1b3684eb8f574af9a74c5af3b2d4ae26</title>
<path fill="#104e8b" stroke="black" d="M175.2,-302.95C175.2,-302.95 12,-302.95 12,-302.95 6,-302.95 0,-296.95 0,-290.95 0,-290.95 0,-199.75 0,-199.75 0,-193.75 6,-187.75 12,-187.75 12,-187.75 175.2,-187.75 175.2,-187.75 181.2,-187.75 187.2,-193.75 187.2,-199.75 187.2,-199.75 187.2,-290.95 187.2,-290.95 187.2,-296.95 181.2,-302.95 175.2,-302.95"/>
<text text-anchor="start" x="59.1" y="-266.95" font-family="Sans-Serif" font-weight="bold" font-size="12.00" fill="white">HFR Station</text>
<text text-anchor="start" x="76.72" y="-257.8" font-family="Sans-Serif" font-size="9.00" fill="white">[Person]</text>
<text text-anchor="start" x="39.97" y="-234.85" font-family="Sans-Serif" font-size="10.00" fill="white">An HFR Station where a</text>
<text text-anchor="start" x="-3.53" y="-224.85" font-family="Sans-Serif" font-size="10.00" fill="white">SeaSonde/WERA/LERA unit is installed and</text>
<text text-anchor="start" x="72.22" y="-214.85" font-family="Sans-Serif" font-size="10.00" fill="white">operating.</text>
</g>
<!-- ba66bfcdb4df44e9accade7b01bffeb2 -->
<g id="node2" class="node">
<title>ba66bfcdb4df44e9accade7b01bffeb2</title>
<polygon fill="#1874cd" stroke="black" points="555.4,-302.95 368.2,-302.95 368.2,-187.75 555.4,-187.75 555.4,-302.95"/>
<text text-anchor="start" x="444.92" y="-261.95" font-family="Sans-Serif" font-weight="bold" font-size="12.00" fill="white">Portal</text>
<text text-anchor="start" x="398.8" y="-252.8" font-family="Sans-Serif" font-size="9.00" fill="white">[Container: AWS, rsync, scripts]</text>
<text text-anchor="start" x="392.05" y="-229.85" font-family="Sans-Serif" font-size="10.00" fill="white">Portal aggregates raw data from</text>
<text text-anchor="start" x="427.3" y="-219.85" font-family="Sans-Serif" font-size="10.00" fill="white">observing sites.</text>
</g>
<!-- 1b3684eb8f574af9a74c5af3b2d4ae26&#45;&gt;ba66bfcdb4df44e9accade7b01bffeb2 -->
<g id="edge1" class="edge">
<title>1b3684eb8f574af9a74c5af3b2d4ae26&#45;&gt;ba66bfcdb4df44e9accade7b01bffeb2</title>
<path fill="none" stroke="#999999" stroke-dasharray="5,2" d="M198.68,-245.35C252.01,-245.35 316.4,-245.35 368.02,-245.35"/>
<polygon fill="#999999" stroke="#999999" points="198.99,-241.85 188.99,-245.35 198.99,-248.85 198.99,-241.85"/>
<text text-anchor="start" x="214.2" y="-258.35" font-family="Sans-Serif" font-size="10.00" fill="#2d3436">rsync raw data from many</text>
<text text-anchor="start" x="260.7" y="-247.1" font-family="Sans-Serif" font-size="10.00" fill="#2d3436">sites</text>
</g>
<!-- 9245e2362d5544d29db31d3536d39d1e -->
<g id="node3" class="node">
<title>9245e2362d5544d29db31d3536d39d1e</title>
<polygon fill="#1874cd" stroke="black" points="880.6,-302.95 693.4,-302.95 693.4,-187.75 880.6,-187.75 880.6,-302.95"/>
<text text-anchor="start" x="771.62" y="-261.95" font-family="Sans-Serif" font-weight="bold" font-size="12.00" fill="white">Node</text>
<text text-anchor="start" x="754.37" y="-252.8" font-family="Sans-Serif" font-size="9.00" fill="white">[Container: ???]</text>
<text text-anchor="start" x="708.25" y="-229.85" font-family="Sans-Serif" font-size="10.00" fill="white">Main internal processing of raw data</text>
<text text-anchor="start" x="757.37" y="-219.85" font-family="Sans-Serif" font-size="10.00" fill="white">into products.</text>
</g>
<!-- ba66bfcdb4df44e9accade7b01bffeb2&#45;&gt;9245e2362d5544d29db31d3536d39d1e -->
<g id="edge2" class="edge">
<title>ba66bfcdb4df44e9accade7b01bffeb2&#45;&gt;9245e2362d5544d29db31d3536d39d1e</title>
<path fill="none" stroke="#999999" stroke-dasharray="5,2" d="M555.85,-245.35C595.22,-245.35 641.27,-245.35 681.78,-245.35"/>
<polygon fill="#999999" stroke="#999999" points="681.53,-248.85 691.53,-245.35 681.53,-241.85 681.53,-248.85"/>
<text text-anchor="start" x="586.52" y="-269.6" font-family="Sans-Serif" font-size="10.00" fill="#2d3436">Calculate derived</text>
<text text-anchor="start" x="582.4" y="-258.35" font-family="Sans-Serif" font-size="10.00" fill="#2d3436">products (e.g. Total</text>
<text text-anchor="start" x="608.65" y="-247.1" font-family="Sans-Serif" font-size="10.00" fill="#2d3436">Vector)</text>
</g>
<!-- f58522cae519460c9cd62ad3abbe87ca -->
<g id="node5" class="node">
<title>f58522cae519460c9cd62ad3abbe87ca</title>
<polygon fill="#1874cd" stroke="black" points="1230.55,-302.95 1043.35,-302.95 1043.35,-187.75 1230.55,-187.75 1230.55,-302.95"/>
<text text-anchor="start" x="1073.2" y="-261.95" font-family="Sans-Serif" font-weight="bold" font-size="12.00" fill="white">Dissemination Service</text>
<text text-anchor="start" x="1039.07" y="-252.8" font-family="Sans-Serif" font-size="9.00" fill="white">[Container: THREDDS, S3 Buckets, other APIs?]</text>
<text text-anchor="start" x="1048.45" y="-229.85" font-family="Sans-Serif" font-size="10.00" fill="white">Service to organize and publish products</text>
<text text-anchor="start" x="1106.95" y="-219.85" font-family="Sans-Serif" font-size="10.00" fill="white">to customers.</text>
</g>
<!-- 9245e2362d5544d29db31d3536d39d1e&#45;&gt;f58522cae519460c9cd62ad3abbe87ca -->
<g id="edge3" class="edge">
<title>9245e2362d5544d29db31d3536d39d1e&#45;&gt;f58522cae519460c9cd62ad3abbe87ca</title>
<path fill="none" stroke="#999999" stroke-dasharray="5,2" d="M880.79,-245.35C927.29,-245.35 983.76,-245.35 1031.75,-245.35"/>
<polygon fill="#999999" stroke="#999999" points="1031.61,-248.85 1041.61,-245.35 1031.61,-241.85 1031.61,-248.85"/>
<text text-anchor="start" x="928.22" y="-258.35" font-family="Sans-Serif" font-size="10.00" fill="#2d3436">Publish files for</text>
<text text-anchor="start" x="930.47" y="-247.1" font-family="Sans-Serif" font-size="10.00" fill="#2d3436">dissemination.</text>
</g>
<!-- efb0c7dc5efc4957b2ec36d80c09ab00 -->
<g id="node6" class="node">
<title>efb0c7dc5efc4957b2ec36d80c09ab00</title>
<polygon fill="#1874cd" stroke="black" points="1230.55,-460.95 1043.35,-460.95 1043.35,-345.75 1230.55,-345.75 1230.55,-460.95"/>
<text text-anchor="start" x="1099.07" y="-419.95" font-family="Sans-Serif" font-weight="bold" font-size="12.00" fill="white">NCEI Archive</text>
<text text-anchor="start" x="1114.45" y="-410.8" font-family="Sans-Serif" font-size="9.00" fill="white">[Container]</text>
<text text-anchor="start" x="1052.57" y="-387.85" font-family="Sans-Serif" font-size="10.00" fill="white">NCEI Archive for public dissemination.</text>
</g>
<!-- 9245e2362d5544d29db31d3536d39d1e&#45;&gt;efb0c7dc5efc4957b2ec36d80c09ab00 -->
<g id="edge5" class="edge">
<title>9245e2362d5544d29db31d3536d39d1e&#45;&gt;efb0c7dc5efc4957b2ec36d80c09ab00</title>
<path fill="none" stroke="#999999" stroke-dasharray="5,2" d="M880.79,-287.48C927.58,-308.73 984.48,-334.57 1032.66,-356.45"/>
<polygon fill="#999999" stroke="#999999" points="1031.19,-359.62 1041.74,-360.57 1034.08,-353.25 1031.19,-359.62"/>
<text text-anchor="start" x="929.35" y="-360.35" font-family="Sans-Serif" font-size="10.00" fill="#2d3436">Provide files to</text>
<text text-anchor="start" x="944.72" y="-349.1" font-family="Sans-Serif" font-size="10.00" fill="#2d3436">archive.</text>
</g>
<!-- 085b2c690c984c74a8ee2a24ebb341f0 -->
<g id="node7" class="node">
<title>085b2c690c984c74a8ee2a24ebb341f0</title>
<polygon fill="#999999" stroke="black" points="1230.55,-138.95 1043.35,-138.95 1043.35,-23.75 1230.55,-23.75 1230.55,-138.95"/>
<text text-anchor="start" x="1036.45" y="-97.95" font-family="Sans-Serif" font-weight="bold" font-size="12.00" fill="white">NWS Telecommunications Gateway</text>
<text text-anchor="start" x="1085.95" y="-88.8" font-family="Sans-Serif" font-size="9.00" fill="white">[External System: FS???]</text>
<text text-anchor="start" x="1036.82" y="-65.85" font-family="Sans-Serif" font-size="10.00" fill="white">NWS managed gateway to the WMO GTS for</text>
<text text-anchor="start" x="1077.7" y="-55.85" font-family="Sans-Serif" font-size="10.00" fill="white">international dissemination.</text>
</g>
<!-- 9245e2362d5544d29db31d3536d39d1e&#45;&gt;085b2c690c984c74a8ee2a24ebb341f0 -->
<g id="edge6" class="edge">
<title>9245e2362d5544d29db31d3536d39d1e&#45;&gt;085b2c690c984c74a8ee2a24ebb341f0</title>
<path fill="none" stroke="#999999" stroke-dasharray="5,2" d="M880.79,-201.62C927.68,-179.51 984.72,-152.63 1032.96,-129.89"/>
<polygon fill="#999999" stroke="#999999" points="1034.2,-133.18 1041.75,-125.75 1031.21,-126.85 1034.2,-133.18"/>
<text text-anchor="start" x="907.6" y="-189.1" font-family="Sans-Serif" font-size="10.00" fill="#2d3436">Provide files to NWSTG.</text>
</g>
<!-- 487db06f1b924c32b3b4ba87f8c09232 -->
<g id="node4" class="node">
<title>487db06f1b924c32b3b4ba87f8c09232</title>
<polygon fill="#1874cd" stroke="black" points="1540,-302.95 1352.8,-302.95 1352.8,-187.75 1540,-187.75 1540,-302.95"/>
<text text-anchor="start" x="1387.15" y="-261.95" font-family="Sans-Serif" font-weight="bold" font-size="12.00" fill="white">Visualization Service</text>
<text text-anchor="start" x="1397.65" y="-252.8" font-family="Sans-Serif" font-size="9.00" fill="white">[Container: OGC/Image]</text>
<text text-anchor="start" x="1361.28" y="-229.85" font-family="Sans-Serif" font-size="10.00" fill="white">Services that provide visualizations via</text>
<text text-anchor="start" x="1423.9" y="-219.85" font-family="Sans-Serif" font-size="10.00" fill="white">web APIs.</text>
</g>
<!-- f58522cae519460c9cd62ad3abbe87ca&#45;&gt;487db06f1b924c32b3b4ba87f8c09232 -->
<g id="edge4" class="edge">
<title>f58522cae519460c9cd62ad3abbe87ca&#45;&gt;487db06f1b924c32b3b4ba87f8c09232</title>
<path fill="none" stroke="#999999" stroke-dasharray="5,2" d="M1231.03,-245.35C1265.72,-245.35 1305.31,-245.35 1340.95,-245.35"/>
<polygon fill="#999999" stroke="#999999" points="1340.86,-248.85 1350.86,-245.35 1340.86,-241.85 1340.86,-248.85"/>
<text text-anchor="start" x="1257.55" y="-258.35" font-family="Sans-Serif" font-size="10.00" fill="#2d3436">Provide files for</text>
<text text-anchor="start" x="1263.17" y="-247.1" font-family="Sans-Serif" font-size="10.00" fill="#2d3436">visualization.</text>
</g>
</g>
</svg>
