<?xml version="1.0" encoding="UTF-8" standalone="no"?>
<!DOCTYPE svg PUBLIC "-//W3C//DTD SVG 1.1//EN"
 "http://www.w3.org/Graphics/SVG/1.1/DTD/svg11.dtd">
<!-- Generated by graphviz version 9.0.0 (0)
 -->
<!-- Title: [Container] HFRNet v1.0 Pages: 1 -->
<svg width="1600pt" height="1899pt"
 viewBox="0.00 0.00 1600.20 1898.85" xmlns="http://www.w3.org/2000/svg" xmlns:xlink="http://www.w3.org/1999/xlink">
<g id="graph0" class="graph" transform="scale(1 1) rotate(0) translate(144 1754.85)">
<title>[Container] HFRNet v1.0</title>
<polygon fill="white" stroke="none" points="-144,144 -144,-1754.85 1456.2,-1754.85 1456.2,144 -144,144"/>
<text text-anchor="middle" x="656.1" y="-5.5" font-family="Sans-Serif" font-size="15.00" fill="#2d3436">[Container] HFRNet v1.0</text>
<g id="clust1" class="cluster">
<title>cluster_HFRNet 1.0</title>
<polygon fill="white" stroke="#aeb6be" stroke-dasharray="5,2" points="203.6,-365.65 203.6,-1602.85 1108.6,-1602.85 1108.6,-365.65 203.6,-365.65"/>
<text text-anchor="middle" x="243.48" y="-1587.45" font-family="Sans-Serif" font-size="12.00" fill="#2d3436">HFRNet 1.0</text>
</g>
<g id="clust2" class="cluster">
<title>cluster_Academic partners</title>
<polygon fill="white" stroke="#aeb6be" stroke-dasharray="5,2" points="219.6,-974.5 219.6,-1142.45 439.6,-1142.45 439.6,-974.5 219.6,-974.5"/>
<text text-anchor="middle" x="277.48" y="-1127.05" font-family="Sans-Serif" font-size="12.00" fill="#2d3436">Academic partners</text>
</g>
<g id="clust3" class="cluster">
<title>cluster_SIO</title>
<polygon fill="white" stroke="#aeb6be" stroke-dasharray="5,2" points="455.6,-974.5 455.6,-1566.1 1092.6,-1566.1 1092.6,-974.5 455.6,-974.5"/>
<text text-anchor="middle" x="473.73" y="-1550.7" font-family="Sans-Serif" font-size="12.00" fill="#2d3436">SIO</text>
</g>
<g id="clust4" class="cluster">
<title>cluster_NDBC</title>
<polygon fill="white" stroke="#aeb6be" stroke-dasharray="5,2" points="771.6,-381.65 771.6,-933 1092.6,-933 1092.6,-381.65 771.6,-381.65"/>
<text text-anchor="middle" x="797.23" y="-917.6" font-family="Sans-Serif" font-size="12.00" fill="#2d3436">NDBC</text>
</g>
<!-- 796f43a772bb40f18ec2950ab2128695 -->
<g id="node1" class="node">
<title>796f43a772bb40f18ec2950ab2128695</title>
<path fill="#104e8b" stroke="black" d="M175.2,-1326.4C175.2,-1326.4 12,-1326.4 12,-1326.4 6,-1326.4 0,-1320.4 0,-1314.4 0,-1314.4 0,-1223.2 0,-1223.2 0,-1217.2 6,-1211.2 12,-1211.2 12,-1211.2 175.2,-1211.2 175.2,-1211.2 181.2,-1211.2 187.2,-1217.2 187.2,-1223.2 187.2,-1223.2 187.2,-1314.4 187.2,-1314.4 187.2,-1320.4 181.2,-1326.4 175.2,-1326.4"/>
<text text-anchor="start" x="59.1" y="-1290.4" font-family="Sans-Serif" font-weight="bold" font-size="12.00" fill="white">HFR Station</text>
<text text-anchor="start" x="76.73" y="-1281.25" font-family="Sans-Serif" font-size="9.00" fill="white">[Person]</text>
<text text-anchor="start" x="39.98" y="-1258.3" font-family="Sans-Serif" font-size="10.00" fill="white">An HFR Station where a</text>
<text text-anchor="start" x="-3.52" y="-1248.3" font-family="Sans-Serif" font-size="10.00" fill="white">SeaSonde/WERA/LERA unit is installed and</text>
<text text-anchor="start" x="72.23" y="-1238.3" font-family="Sans-Serif" font-size="10.00" fill="white">operating.</text>
</g>
<!-- 7a019d07a68645cd91f109c027d36ab2 -->
<g id="node2" class="node">
<title>7a019d07a68645cd91f109c027d36ab2</title>
<polygon fill="#1874cd" stroke="black" points="423.2,-1105.7 236,-1105.7 236,-990.5 423.2,-990.5 423.2,-1105.7"/>
<text text-anchor="start" x="312.73" y="-1064.7" font-family="Sans-Serif" font-weight="bold" font-size="12.00" fill="white">Portal</text>
<text text-anchor="start" x="249.73" y="-1055.55" font-family="Sans-Serif" font-size="9.00" fill="white">[Container: rsync, Python, Shell Scripts]</text>
<text text-anchor="start" x="259.85" y="-1032.6" font-family="Sans-Serif" font-size="10.00" fill="white">Portals aggregate raw data from</text>
<text text-anchor="start" x="256.48" y="-1022.6" font-family="Sans-Serif" font-size="10.00" fill="white">observing sites. 6&#45;7 Portals exist.</text>
</g>
<!-- 796f43a772bb40f18ec2950ab2128695&#45;&gt;7a019d07a68645cd91f109c027d36ab2 -->
<g id="edge1" class="edge">
<title>796f43a772bb40f18ec2950ab2128695&#45;&gt;7a019d07a68645cd91f109c027d36ab2</title>
<path fill="none" stroke="#999999" stroke-dasharray="5,2" d="M163.3,-1203.21C193.7,-1175.04 229.25,-1142.09 259.67,-1113.9"/>
<polygon fill="#999999" stroke="#999999" points="161.06,-1200.52 156.1,-1209.88 165.81,-1205.65 161.06,-1200.52"/>
<polygon fill="#999999" stroke="#999999" points="262.04,-1116.48 267,-1107.11 257.28,-1111.34 262.04,-1116.48"/>
<text text-anchor="start" x="218.6" y="-1169.08" font-family="Sans-Serif" font-size="10.00" fill="#2d3436">rsync raw data from many</text>
<text text-anchor="start" x="265.1" y="-1157.83" font-family="Sans-Serif" font-size="10.00" fill="#2d3436">sites</text>
</g>
<!-- 012b0052e5dd4df0bd226cd3c0a2f4fc -->
<g id="node4" class="node">
<title>012b0052e5dd4df0bd226cd3c0a2f4fc</title>
<polygon fill="#1874cd" stroke="black" points="846.2,-1105.7 659,-1105.7 659,-990.5 846.2,-990.5 846.2,-1105.7"/>
<text text-anchor="start" x="737.23" y="-1064.7" font-family="Sans-Serif" font-weight="bold" font-size="12.00" fill="white">Node</text>
<text text-anchor="start" x="669.73" y="-1055.55" font-family="Sans-Serif" font-size="9.00" fill="white">[Container: Matlab, Python, Shell Scripts]</text>
<text text-anchor="start" x="673.85" y="-1032.6" font-family="Sans-Serif" font-size="10.00" fill="white">Main internal processing of raw data</text>
<text text-anchor="start" x="722.98" y="-1022.6" font-family="Sans-Serif" font-size="10.00" fill="white">into products.</text>
</g>
<!-- 7a019d07a68645cd91f109c027d36ab2&#45;&gt;012b0052e5dd4df0bd226cd3c0a2f4fc -->
<g id="edge2" class="edge">
<title>7a019d07a68645cd91f109c027d36ab2&#45;&gt;012b0052e5dd4df0bd226cd3c0a2f4fc</title>
<path fill="none" stroke="#999999" stroke-dasharray="5,2" d="M423.48,-1048.1C489.76,-1048.1 578.65,-1048.1 647.34,-1048.1"/>
<polygon fill="#999999" stroke="#999999" points="647.11,-1051.6 657.11,-1048.1 647.11,-1044.6 647.11,-1051.6"/>
<text text-anchor="start" x="487.1" y="-1064.1" font-family="Sans-Serif" font-size="10.00" fill="#2d3436">Provides aggregated raw</text>
<text text-anchor="start" x="519.73" y="-1052.85" font-family="Sans-Serif" font-size="10.00" fill="#2d3436">data files.</text>
</g>
<!-- 7dc3d4dbfff64d67a8b7dc6ed1ad40a2 -->
<g id="node8" class="node">
<title>7dc3d4dbfff64d67a8b7dc6ed1ad40a2</title>
<polygon fill="#1874cd" stroke="black" points="1026.2,-896.25 839,-896.25 839,-781.05 1026.2,-781.05 1026.2,-896.25"/>
<text text-anchor="start" x="882.73" y="-855.25" font-family="Sans-Serif" font-weight="bold" font-size="12.00" fill="white">Operational Node</text>
<text text-anchor="start" x="849.73" y="-846.1" font-family="Sans-Serif" font-size="9.00" fill="white">[Container: Matlab, Python, Shell Scripts]</text>
<text text-anchor="start" x="853.85" y="-823.15" font-family="Sans-Serif" font-size="10.00" fill="white">Main internal processing of raw data</text>
<text text-anchor="start" x="902.98" y="-813.15" font-family="Sans-Serif" font-size="10.00" fill="white">into products.</text>
</g>
<!-- 7a019d07a68645cd91f109c027d36ab2&#45;&gt;7dc3d4dbfff64d67a8b7dc6ed1ad40a2 -->
<g id="edge3" class="edge">
<title>7a019d07a68645cd91f109c027d36ab2&#45;&gt;7dc3d4dbfff64d67a8b7dc6ed1ad40a2</title>
<path fill="none" stroke="#999999" stroke-dasharray="5,2" d="M414.55,-990.12C424.78,-984.41 435.27,-979.05 445.6,-974.5 571.94,-918.88 726.96,-880.69 827.67,-859.51"/>
<polygon fill="#999999" stroke="#999999" points="828.2,-862.98 837.28,-857.51 826.78,-856.12 828.2,-862.98"/>
<text text-anchor="start" x="521.6" y="-954" font-family="Sans-Serif" font-size="10.00" fill="#2d3436">Providess aggregated raw</text>
<text text-anchor="start" x="556.85" y="-942.75" font-family="Sans-Serif" font-size="10.00" fill="#2d3436">data files.</text>
</g>
<!-- e429b7eb64754f16bd4e6f0b3535f2e2 -->
<g id="node3" class="node">
<title>e429b7eb64754f16bd4e6f0b3535f2e2</title>
<polygon fill="#1874cd" stroke="black" points="615.6,-1304.8 471.6,-1304.8 471.6,-1232.8 615.6,-1232.8 615.6,-1304.8"/>
<text text-anchor="start" x="503.48" y="-1268.9" font-family="Sans-Serif" font-weight="bold" font-size="12.00" fill="white">Portal Monitor</text>
<text text-anchor="start" x="410.85" y="-1259.75" font-family="Sans-Serif" font-size="9.00" fill="white">[Container: Monitor site health and aggregate site configurations.]</text>
</g>
<!-- e429b7eb64754f16bd4e6f0b3535f2e2&#45;&gt;7a019d07a68645cd91f109c027d36ab2 -->
<g id="edge4" class="edge">
<title>e429b7eb64754f16bd4e6f0b3535f2e2&#45;&gt;7a019d07a68645cd91f109c027d36ab2</title>
<path fill="none" stroke="#999999" stroke-dasharray="5,2" d="M509.22,-1232.66C478,-1200.76 431.17,-1152.9 393.16,-1114.05"/>
<polygon fill="#999999" stroke="#999999" points="395.74,-1111.69 386.25,-1106.99 390.74,-1116.58 395.74,-1111.69"/>
<text text-anchor="start" x="455.6" y="-1174.7" font-family="Sans-Serif" font-size="10.00" fill="#2d3436">Monitor data flow, site</text>
<text text-anchor="start" x="479.23" y="-1163.45" font-family="Sans-Serif" font-size="10.00" fill="#2d3436">health, site</text>
<text text-anchor="start" x="473.98" y="-1152.2" font-family="Sans-Serif" font-size="10.00" fill="#2d3436">configuration.</text>
</g>
<!-- 2f766faf2e7a4cf698e1c3ebce2e7f55 -->
<g id="node15" class="node">
<title>2f766faf2e7a4cf698e1c3ebce2e7f55</title>
<polygon fill="#999999" stroke="black" points="1312.2,-896.25 1125,-896.25 1125,-781.05 1312.2,-781.05 1312.2,-896.25"/>
<text text-anchor="start" x="1192.35" y="-855.25" font-family="Sans-Serif" font-weight="bold" font-size="12.00" fill="white">ERDDAP</text>
<text text-anchor="start" x="1183.35" y="-846.1" font-family="Sans-Serif" font-size="9.00" fill="white">[External System]</text>
<text text-anchor="start" x="1125.22" y="-823.15" font-family="Sans-Serif" font-size="10.00" fill="white">ERRDAP server providing access to radial</text>
<text text-anchor="start" x="1197.22" y="-813.15" font-family="Sans-Serif" font-size="10.00" fill="white">data files.</text>
</g>
<!-- 012b0052e5dd4df0bd226cd3c0a2f4fc&#45;&gt;2f766faf2e7a4cf698e1c3ebce2e7f55 -->
<g id="edge16" class="edge">
<title>012b0052e5dd4df0bd226cd3c0a2f4fc&#45;&gt;2f766faf2e7a4cf698e1c3ebce2e7f55</title>
<path fill="none" stroke="#999999" stroke-dasharray="5,2" d="M846.61,-1026.34C919.3,-1007.98 1020.97,-977.21 1102.6,-933 1117.94,-924.69 1133.26,-914.27 1147.49,-903.44"/>
<polygon fill="#999999" stroke="#999999" points="1149.27,-906.49 1155.01,-897.58 1144.97,-900.97 1149.27,-906.49"/>
<text text-anchor="start" x="1084.6" y="-948.38" font-family="Sans-Serif" font-size="10.00" fill="#2d3436">FTP radials to server</text>
</g>
<!-- c895136f2b4c409fa7a553f9f19e3da1 -->
<g id="node5" class="node">
<title>c895136f2b4c409fa7a553f9f19e3da1</title>
<polygon fill="#1874cd" stroke="black" points="846.2,-1326.4 659,-1326.4 659,-1211.2 846.2,-1211.2 846.2,-1326.4"/>
<text text-anchor="start" x="713.98" y="-1285.4" font-family="Sans-Serif" font-weight="bold" font-size="12.00" fill="white">Node Monitor</text>
<text text-anchor="start" x="701.98" y="-1276.25" font-family="Sans-Serif" font-size="9.00" fill="white">[Container: rdbms, html, ]</text>
<text text-anchor="start" x="663.35" y="-1253.3" font-family="Sans-Serif" font-size="10.00" fill="white">Monitor and report system health metrics</text>
<text text-anchor="start" x="726.35" y="-1243.3" font-family="Sans-Serif" font-size="10.00" fill="white">(e.g. 80/80).</text>
</g>
<!-- c895136f2b4c409fa7a553f9f19e3da1&#45;&gt;012b0052e5dd4df0bd226cd3c0a2f4fc -->
<g id="edge5" class="edge">
<title>c895136f2b4c409fa7a553f9f19e3da1&#45;&gt;012b0052e5dd4df0bd226cd3c0a2f4fc</title>
<path fill="none" stroke="#999999" stroke-dasharray="5,2" d="M752.6,-1210.91C752.6,-1182.29 752.6,-1147.39 752.6,-1117.34"/>
<polygon fill="#999999" stroke="#999999" points="756.1,-1117.6 752.6,-1107.6 749.1,-1117.6 756.1,-1117.6"/>
<text text-anchor="start" x="754.48" y="-1174.7" font-family="Sans-Serif" font-size="10.00" fill="#2d3436">Monitor data flow and</text>
<text text-anchor="start" x="752.6" y="-1163.45" font-family="Sans-Serif" font-size="10.00" fill="#2d3436">calculate system wide</text>
<text text-anchor="start" x="783.73" y="-1152.2" font-family="Sans-Serif" font-size="10.00" fill="#2d3436">metrics.</text>
</g>
<!-- ac917da606e04b20949e90581f345fe7 -->
<g id="node6" class="node">
<title>ac917da606e04b20949e90581f345fe7</title>
<polygon fill="#1874cd" stroke="black" points="846.2,-1529.35 659,-1529.35 659,-1414.15 846.2,-1414.15 846.2,-1529.35"/>
<text text-anchor="start" x="688.85" y="-1488.35" font-family="Sans-Serif" font-weight="bold" font-size="12.00" fill="white">System status website</text>
<text text-anchor="start" x="670.48" y="-1479.2" font-family="Sans-Serif" font-size="9.00" fill="white">[Container: html, OpenMaps, Javascript.]</text>
<text text-anchor="start" x="667.48" y="-1456.25" font-family="Sans-Serif" font-size="10.00" fill="white">Services that provide visualizations via</text>
<text text-anchor="start" x="730.1" y="-1446.25" font-family="Sans-Serif" font-size="10.00" fill="white">web APIs.</text>
</g>
<!-- ac917da606e04b20949e90581f345fe7&#45;&gt;e429b7eb64754f16bd4e6f0b3535f2e2 -->
<g id="edge6" class="edge">
<title>ac917da606e04b20949e90581f345fe7&#45;&gt;e429b7eb64754f16bd4e6f0b3535f2e2</title>
<path fill="none" stroke="#999999" stroke-dasharray="5,2" d="M693.27,-1413.7C659.92,-1381.64 618.98,-1342.28 588.35,-1312.83"/>
<polygon fill="#999999" stroke="#999999" points="591.12,-1310.64 581.49,-1306.23 586.27,-1315.68 591.12,-1310.64"/>
<text text-anchor="start" x="660.6" y="-1372.02" font-family="Sans-Serif" font-size="10.00" fill="#2d3436">Pull metrics for</text>
<text text-anchor="start" x="665.1" y="-1360.77" font-family="Sans-Serif" font-size="10.00" fill="#2d3436">visualization.</text>
</g>
<!-- ac917da606e04b20949e90581f345fe7&#45;&gt;c895136f2b4c409fa7a553f9f19e3da1 -->
<g id="edge7" class="edge">
<title>ac917da606e04b20949e90581f345fe7&#45;&gt;c895136f2b4c409fa7a553f9f19e3da1</title>
<path fill="none" stroke="#999999" stroke-dasharray="5,2" d="M752.6,-1413.7C752.6,-1390.16 752.6,-1362.69 752.6,-1338.09"/>
<polygon fill="#999999" stroke="#999999" points="756.1,-1338.15 752.6,-1328.15 749.1,-1338.15 756.1,-1338.15"/>
<text text-anchor="start" x="752.6" y="-1372.02" font-family="Sans-Serif" font-size="10.00" fill="#2d3436">Pull metrics for</text>
<text text-anchor="start" x="757.1" y="-1360.77" font-family="Sans-Serif" font-size="10.00" fill="#2d3436">visualization.</text>
</g>
<!-- 103d618f04f9495f95f51bc3364d70d3 -->
<g id="node7" class="node">
<title>103d618f04f9495f95f51bc3364d70d3</title>
<polygon fill="#1874cd" stroke="black" points="1076.2,-1326.4 889,-1326.4 889,-1211.2 1076.2,-1211.2 1076.2,-1326.4"/>
<text text-anchor="start" x="952.6" y="-1285.4" font-family="Sans-Serif" font-weight="bold" font-size="12.00" fill="white">THREDDS</text>
<text text-anchor="start" x="868.98" y="-1276.25" font-family="Sans-Serif" font-size="9.00" fill="white">[Container: OPeNDAP, OGC/WMS (ncWMS), other APIs]</text>
<text text-anchor="start" x="894.1" y="-1253.3" font-family="Sans-Serif" font-size="10.00" fill="white">Service to organize and publish products</text>
<text text-anchor="start" x="929.73" y="-1243.3" font-family="Sans-Serif" font-size="10.00" fill="white">(e.g RTV) to customers.</text>
</g>
<!-- ac917da606e04b20949e90581f345fe7&#45;&gt;103d618f04f9495f95f51bc3364d70d3 -->
<g id="edge8" class="edge">
<title>ac917da606e04b20949e90581f345fe7&#45;&gt;103d618f04f9495f95f51bc3364d70d3</title>
<path fill="none" stroke="#999999" stroke-dasharray="5,2" d="M817.89,-1413.7C846.3,-1388.89 879.72,-1359.69 909,-1334.1"/>
<polygon fill="#999999" stroke="#999999" points="911.17,-1336.85 916.4,-1327.64 906.57,-1331.58 911.17,-1336.85"/>
<text text-anchor="start" x="880.6" y="-1377.65" font-family="Sans-Serif" font-size="10.00" fill="#2d3436">Access OGC/WMS API</text>
<text text-anchor="start" x="891.1" y="-1366.4" font-family="Sans-Serif" font-size="10.00" fill="#2d3436">access to visualize</text>
<text text-anchor="start" x="919.6" y="-1355.15" font-family="Sans-Serif" font-size="10.00" fill="#2d3436">maps.</text>
</g>
<!-- ff107c77477740208ba74e914f8e681e -->
<g id="node9" class="node">
<title>ff107c77477740208ba74e914f8e681e</title>
<polygon fill="#1874cd" stroke="black" points="1076.2,-704.55 889,-704.55 889,-589.35 1076.2,-589.35 1076.2,-704.55"/>
<text text-anchor="start" x="952.6" y="-668.55" font-family="Sans-Serif" font-weight="bold" font-size="12.00" fill="white">THREDDS</text>
<text text-anchor="start" x="868.98" y="-659.4" font-family="Sans-Serif" font-size="9.00" fill="white">[Container: OPeNDAP, OGC/WMS (ncWMS), other APIs]</text>
<text text-anchor="start" x="894.1" y="-636.45" font-family="Sans-Serif" font-size="10.00" fill="white">Service to organize and publish products</text>
<text text-anchor="start" x="893.35" y="-626.45" font-family="Sans-Serif" font-size="10.00" fill="white">(e.g RTV) to customers, including NOAA</text>
<text text-anchor="start" x="957.48" y="-616.45" font-family="Sans-Serif" font-size="10.00" fill="white">Operations.</text>
</g>
<!-- 7dc3d4dbfff64d67a8b7dc6ed1ad40a2&#45;&gt;ff107c77477740208ba74e914f8e681e -->
<g id="edge13" class="edge">
<title>7dc3d4dbfff64d67a8b7dc6ed1ad40a2&#45;&gt;ff107c77477740208ba74e914f8e681e</title>
<path fill="none" stroke="#999999" stroke-dasharray="5,2" d="M947.6,-780.73C952.99,-760.29 959.12,-737.03 964.73,-715.75"/>
<polygon fill="#999999" stroke="#999999" points="968.06,-716.85 967.22,-706.29 961.29,-715.07 968.06,-716.85"/>
<text text-anchor="start" x="958.6" y="-744.55" font-family="Sans-Serif" font-size="10.00" fill="#2d3436">Provide files to</text>
<text text-anchor="start" x="964.98" y="-733.3" font-family="Sans-Serif" font-size="10.00" fill="#2d3436">THREDDS.</text>
</g>
<!-- 50f2cf17546b4efc85d5e2e71e5eadbb -->
<g id="node10" class="node">
<title>50f2cf17546b4efc85d5e2e71e5eadbb</title>
<polygon fill="#1874cd" stroke="black" points="1025.2,-512.85 838,-512.85 838,-397.65 1025.2,-397.65 1025.2,-512.85"/>
<text text-anchor="start" x="895.23" y="-471.85" font-family="Sans-Serif" font-weight="bold" font-size="12.00" fill="white">Postprocess</text>
<text text-anchor="start" x="892.6" y="-462.7" font-family="Sans-Serif" font-size="9.00" fill="white">[Container: Python]</text>
<text text-anchor="start" x="853.6" y="-439.75" font-family="Sans-Serif" font-size="10.00" fill="white">Scripts to reformat files and push to</text>
<text text-anchor="start" x="923.35" y="-429.75" font-family="Sans-Serif" font-size="10.00" fill="white">TG.</text>
</g>
<!-- 7dc3d4dbfff64d67a8b7dc6ed1ad40a2&#45;&gt;50f2cf17546b4efc85d5e2e71e5eadbb -->
<g id="edge10" class="edge">
<title>7dc3d4dbfff64d67a8b7dc6ed1ad40a2&#45;&gt;50f2cf17546b4efc85d5e2e71e5eadbb</title>
<path fill="none" stroke="#999999" stroke-dasharray="5,2" d="M888.58,-780.58C873.88,-758.14 859.35,-731.36 851.85,-704.55 838.06,-655.24 838.2,-638.7 851.85,-589.35 858.24,-566.26 869.82,-543.14 882.2,-522.81"/>
<polygon fill="#999999" stroke="#999999" points="885.17,-524.68 887.53,-514.35 879.24,-520.95 885.17,-524.68"/>
<text text-anchor="start" x="851.6" y="-643.08" font-family="Sans-Serif" font-size="10.00" fill="#2d3436">???</text>
</g>
<!-- a070885c592e4c318d7ccdf646779b27 -->
<g id="node13" class="node">
<title>a070885c592e4c318d7ccdf646779b27</title>
<polygon fill="#999999" stroke="black" points="1312.2,-704.55 1125,-704.55 1125,-589.35 1312.2,-589.35 1312.2,-704.55"/>
<text text-anchor="start" x="1180.72" y="-663.55" font-family="Sans-Serif" font-weight="bold" font-size="12.00" fill="white">NCEI Archive</text>
<text text-anchor="start" x="1183.35" y="-654.4" font-family="Sans-Serif" font-size="9.00" fill="white">[External System]</text>
<text text-anchor="start" x="1134.22" y="-631.45" font-family="Sans-Serif" font-size="10.00" fill="white">NCEI Archive for public dissemination.</text>
</g>
<!-- 7dc3d4dbfff64d67a8b7dc6ed1ad40a2&#45;&gt;a070885c592e4c318d7ccdf646779b27 -->
<g id="edge9" class="edge">
<title>7dc3d4dbfff64d67a8b7dc6ed1ad40a2&#45;&gt;a070885c592e4c318d7ccdf646779b27</title>
<path fill="none" stroke="#999999" stroke-dasharray="5,2" d="M1018.41,-780.73C1051.5,-758.79 1089.48,-733.6 1123.4,-711.1"/>
<polygon fill="#999999" stroke="#999999" points="1125.19,-714.11 1131.59,-705.66 1121.32,-708.27 1125.19,-714.11"/>
<text text-anchor="start" x="1083.6" y="-744.55" font-family="Sans-Serif" font-size="10.00" fill="#2d3436">Provide monthly archive</text>
<text text-anchor="start" x="1093.35" y="-733.3" font-family="Sans-Serif" font-size="10.00" fill="#2d3436">package to archive.</text>
</g>
<!-- ff107c77477740208ba74e914f8e681e&#45;&gt;50f2cf17546b4efc85d5e2e71e5eadbb -->
<g id="edge11" class="edge">
<title>ff107c77477740208ba74e914f8e681e&#45;&gt;50f2cf17546b4efc85d5e2e71e5eadbb</title>
<path fill="none" stroke="#999999" stroke-dasharray="5,2" d="M967.3,-589.03C961.8,-568.59 955.55,-545.33 949.83,-524.05"/>
<polygon fill="#999999" stroke="#999999" points="953.26,-523.34 947.28,-514.59 946.5,-525.15 953.26,-523.34"/>
<text text-anchor="start" x="958.6" y="-547.23" font-family="Sans-Serif" font-size="10.00" fill="#2d3436">???</text>
</g>
<!-- c6b5f66055b64549954c2e9879092bf5 -->
<g id="node12" class="node">
<title>c6b5f66055b64549954c2e9879092bf5</title>
<polygon fill="#999999" stroke="black" points="1312.2,-512.85 1125,-512.85 1125,-397.65 1312.2,-397.65 1312.2,-512.85"/>
<text text-anchor="start" x="1171.72" y="-471.85" font-family="Sans-Serif" font-weight="bold" font-size="12.00" fill="white">NCEP Data Tank</text>
<text text-anchor="start" x="1158.6" y="-462.7" font-family="Sans-Serif" font-size="9.00" fill="white">[External System: technology]</text>
<text text-anchor="start" x="1146.97" y="-439.75" font-family="Sans-Serif" font-size="10.00" fill="white">Datastore available to the NOAA</text>
<text text-anchor="start" x="1131.22" y="-429.75" font-family="Sans-Serif" font-size="10.00" fill="white">Operational compute system WCOSS2.</text>
</g>
<!-- ff107c77477740208ba74e914f8e681e&#45;&gt;c6b5f66055b64549954c2e9879092bf5 -->
<g id="edge14" class="edge">
<title>ff107c77477740208ba74e914f8e681e&#45;&gt;c6b5f66055b64549954c2e9879092bf5</title>
<path fill="none" stroke="#999999" stroke-dasharray="5,2" d="M1062.29,-581.9C1090.01,-559.61 1120.89,-534.79 1147.84,-513.13"/>
<polygon fill="#999999" stroke="#999999" points="1060.19,-579.09 1054.59,-588.09 1064.57,-584.55 1060.19,-579.09"/>
<text text-anchor="start" x="1107.6" y="-552.85" font-family="Sans-Serif" font-size="10.00" fill="#2d3436">Access OPeNDAP to</text>
<text text-anchor="start" x="1110.97" y="-541.6" font-family="Sans-Serif" font-size="10.00" fill="#2d3436">populate data tanks.</text>
</g>
<!-- 729baf9ef3534ce291c41c05afe32f48 -->
<g id="node11" class="node">
<title>729baf9ef3534ce291c41c05afe32f48</title>
<polygon fill="#999999" stroke="black" points="1025.2,-319.4 838,-319.4 838,-204.2 1025.2,-204.2 1025.2,-319.4"/>
<text text-anchor="start" x="831.1" y="-278.4" font-family="Sans-Serif" font-weight="bold" font-size="12.00" fill="white">NWS Telecommunications Gateway</text>
<text text-anchor="start" x="880.6" y="-269.25" font-family="Sans-Serif" font-size="9.00" fill="white">[External System: FS???]</text>
<text text-anchor="start" x="831.48" y="-246.3" font-family="Sans-Serif" font-size="10.00" fill="white">NWS managed gateway to the WMO GTS for</text>
<text text-anchor="start" x="872.35" y="-236.3" font-family="Sans-Serif" font-size="10.00" fill="white">international dissemination.</text>
</g>
<!-- 50f2cf17546b4efc85d5e2e71e5eadbb&#45;&gt;729baf9ef3534ce291c41c05afe32f48 -->
<g id="edge12" class="edge">
<title>50f2cf17546b4efc85d5e2e71e5eadbb&#45;&gt;729baf9ef3534ce291c41c05afe32f48</title>
<path fill="none" stroke="#999999" stroke-dasharray="5,2" d="M931.6,-397.33C931.6,-376.59 931.6,-352.92 931.6,-331.28"/>
<polygon fill="#999999" stroke="#999999" points="935.1,-331.35 931.6,-321.35 928.1,-331.35 935.1,-331.35"/>
<text text-anchor="start" x="931.6" y="-348.15" font-family="Sans-Serif" font-size="10.00" fill="#2d3436">Provide files to NWSTG.</text>
</g>
<!-- 9cd4d0b925114744abfd8e4dc877e2c5 -->
<g id="node14" class="node">
<title>9cd4d0b925114744abfd8e4dc877e2c5</title>
<polygon fill="#999999" stroke="black" points="1025.2,-138.95 838,-138.95 838,-23.75 1025.2,-23.75 1025.2,-138.95"/>
<text text-anchor="start" x="902.73" y="-102.95" font-family="Sans-Serif" font-weight="bold" font-size="12.00" fill="white">WMO GTS</text>
<text text-anchor="start" x="896.35" y="-93.8" font-family="Sans-Serif" font-size="9.00" fill="white">[External System]</text>
<text text-anchor="start" x="838.98" y="-70.85" font-family="Sans-Serif" font-size="10.00" fill="white">WMO Global Telecommunications System</text>
<text text-anchor="start" x="859.98" y="-60.85" font-family="Sans-Serif" font-size="10.00" fill="white">provides access to radar data for</text>
<text text-anchor="start" x="869.73" y="-50.85" font-family="Sans-Serif" font-size="10.00" fill="white">national weather servies [...]</text>
</g>
<!-- 729baf9ef3534ce291c41c05afe32f48&#45;&gt;9cd4d0b925114744abfd8e4dc877e2c5 -->
<g id="edge15" class="edge">
<title>729baf9ef3534ce291c41c05afe32f48&#45;&gt;9cd4d0b925114744abfd8e4dc877e2c5</title>
<path fill="none" stroke="#999999" stroke-dasharray="5,2" d="M931.6,-203.85C931.6,-186.94 931.6,-168.26 931.6,-150.71"/>
<polygon fill="#999999" stroke="#999999" points="935.1,-150.89 931.6,-140.89 928.1,-150.89 935.1,-150.89"/>
<text text-anchor="start" x="931.6" y="-167.7" font-family="Sans-Serif" font-size="10.00" fill="#2d3436">Provides data to.</text>
</g>
</g>
</svg>
