<svg width="72" height="89" viewBox="0 0 72 89" fill="none" xmlns="http://www.w3.org/2000/svg">
<path d="M52.8916 1.975L50.5916 3.67501C45.1916 2.07501 37.9916 2.37502 32.4916 6.37502C23.7916 12.675 19.2916 26.275 23.2916 31.675C23.3916 31.875 23.6916 31.975 23.8916 32.075C23.9916 32.075 25.9916 32.375 28.9916 32.375C28.1916 38.475 29.7916 40.575 33.2916 45.375C33.5916 45.775 34.1916 45.875 34.5916 45.575C35.8916 44.575 36.9916 43.475 37.7916 42.275C38.0916 41.875 37.9916 41.275 37.5916 40.975C37.1916 40.675 36.5916 40.775 36.2916 41.175C35.6916 41.975 35.0915 42.775 34.1915 43.375C31.1915 39.275 30.1916 37.475 30.8916 32.175C33.2916 31.975 35.5916 31.675 37.5916 31.075C37.7916 31.975 37.8916 32.875 37.9916 33.675C37.9916 34.175 38.4916 34.575 38.9916 34.575C39.4916 34.575 39.8916 34.075 39.8916 33.575C39.7916 32.575 39.6916 31.575 39.3916 30.475C41.2916 29.775 43.0916 28.875 44.5916 27.775C46.7916 26.175 48.6915 24.175 50.1915 21.675C55.3915 22.675 59.3916 27.175 59.5916 32.475C59.5916 32.875 59.8916 33.275 60.2916 33.375C60.6916 33.475 61.0916 33.275 61.2916 32.875C65.0916 25.675 67.8916 21.975 64.3916 17.175C61.5916 13.375 58.0916 13.675 53.7916 14.175C53.5916 14.175 53.2916 14.275 53.0916 14.275C53.1916 13.675 53.2916 13.075 53.3916 12.375C55.4916 12.275 57.4916 11.475 59.1916 10.275L63.6916 6.975C64.0916 6.675 64.1916 6.07501 63.8916 5.67501L62.1916 3.37502C59.8916 0.475023 55.7916 -0.125001 52.8916 1.975ZM38.4916 5.475C40.3916 4.875 42.3916 4.57501 44.4916 4.67501L46.2916 9.17501L40.4916 8.27505L38.4916 5.475ZM46.3916 10.975L41.6915 19.875L37.9916 14.775L40.4916 10.075L46.3916 10.975ZM27.7916 14.075L29.3916 16.275L28.3916 22.675L24.4916 21.175C25.1916 18.775 26.2916 16.275 27.7916 14.075ZM28.8916 30.475C26.7916 30.475 25.1916 30.375 24.4916 30.275C23.4916 28.675 23.2916 26.075 23.9916 22.975L28.2916 24.575L28.8916 30.475ZM43.7916 25.975C43.6916 26.075 43.5916 26.175 43.3916 26.275C39.7916 28.875 35.1916 30.075 30.7916 30.375L30.1915 24.675L41.3916 22.675L43.7916 25.975ZM40.0916 20.975L30.1915 22.675L31.0916 16.775L36.2916 15.775L40.0916 20.975ZM30.7916 14.975L28.9916 12.475C30.3916 10.675 31.8916 9.175 33.5916 7.975C34.5916 7.275 35.5915 6.67501 36.6915 6.17501L38.8916 9.17501L36.2916 13.975L30.7916 14.975ZM62.8916 18.275C65.2916 21.575 63.8916 24.075 60.8916 29.575C60.3916 27.575 59.3916 25.675 57.9916 24.175C56.1916 22.075 53.6916 20.675 51.0916 20.075C51.6916 18.875 52.1916 17.575 52.5916 16.275C53.0916 16.275 53.4916 16.175 53.9916 16.175C58.1916 15.575 60.6916 15.275 62.8916 18.275ZM45.1915 24.775L42.8916 21.575L48.2916 11.375L51.3916 11.875C51.0916 16.275 48.9915 21.275 45.1915 24.775ZM51.3916 9.87502L48.3916 9.37502L46.4916 4.67501C48.1916 4.87501 49.4916 5.27502 49.9916 5.37502C50.8916 6.67502 51.2916 8.17502 51.3916 9.87502ZM61.5916 6.07504L57.8916 8.77505C56.4916 9.77505 54.9916 10.375 53.2916 10.475C53.2916 8.375 52.7916 6.475 51.8916 4.975L53.8916 3.475C55.9916 1.975 58.8916 2.375 60.4916 4.475L61.5916 6.07504Z" fill="#8FC4E5"/>
<path fill-rule="evenodd" clip-rule="evenodd" d="M37.4916 38.775C37.1916 38.375 37.2915 37.775 37.6915 37.475C38.0915 37.175 38.6916 37.275 38.9916 37.675C39.2916 38.075 39.1916 38.675 38.7916 38.975C38.3916 39.275 37.7916 39.175 37.4916 38.775Z" fill="#8FC4E5"/>
<path d="M56.4915 3.87499L55.7915 4.37499L56.2915 5.075C56.5915 5.475 57.1915 5.57502 57.5915 5.27502L58.2915 4.77502L57.7915 4.075C57.4915 3.675 56.8915 3.57499 56.4915 3.87499Z" fill="#8FC4E5"/>
<path fill-rule="evenodd" clip-rule="evenodd" d="M29.0916 2.775C28.6916 2.675 28.4916 2.875 28.4916 3.275L31.4916 7.47495L32.0916 6.97495L29.0916 2.775Z" fill="#8FC4E5"/>
<path fill-rule="evenodd" clip-rule="evenodd" d="M27.5915 9.47497C27.2915 9.07497 27.3916 8.475 27.7916 8.075L32.7916 4.47497C33.1916 4.17497 33.7915 4.27498 34.1915 4.67498L34.9916 5.87499C35.2916 6.27499 35.1916 6.87502 34.7916 7.27502L29.7916 10.875C29.3916 11.175 28.7915 11.075 28.3915 10.675L27.5915 9.47497Z" fill="#8FC4E5"/>
<path d="M51.0916 59.475C49.8916 59.275 48.7916 58.575 47.9916 57.575C42.2916 49.775 32.9916 46.275 23.9916 47.575C23.4916 47.675 23.1915 48.075 23.1915 48.575C23.2915 49.075 23.6915 49.375 24.1915 49.375C32.5915 48.175 41.1916 51.575 46.4916 58.675C47.5916 60.175 49.3915 61.175 51.1915 61.375L51.0916 59.475Z" fill="#8FC4E5"/>
<path d="M50.3916 61.175C52.0916 61.575 53.9916 61.075 55.2916 59.675L58.3916 57.175L57.8916 55.475C56.7916 56.175 55.3916 57.175 53.8916 58.475C53.1916 59.275 52.0916 59.675 50.9916 59.475L50.3916 61.175Z" fill="#8FC4E5"/>
<path d="M58.2916 57.275C58.8916 56.975 59.4915 56.775 60.1915 56.875L63.1915 57.175C64.2915 57.275 65.2916 57.675 66.0916 58.375L68.0916 60.575C68.4916 60.875 69.4916 61.175 69.5916 61.575L69.8915 64.875C69.9915 65.475 69.4915 65.975 68.8915 65.875L67.5916 65.775C67.4916 65.775 67.2915 65.675 67.3915 65.475L67.5916 63.375C67.6916 62.875 67.2916 62.475 66.7916 62.375C66.2916 62.275 65.8916 62.675 65.7916 63.175L65.5916 65.275C65.5916 65.375 65.4916 65.575 65.2916 65.475L63.8915 65.375C62.4915 65.075 61.9915 66.975 63.6915 67.175L65.0916 67.275C65.4916 67.275 65.8916 67.275 66.2916 67.075C66.4916 67.275 66.7916 67.375 67.0916 67.475V67.775C67.0916 68.175 66.6916 68.475 66.2916 68.475H65.9916C65.7916 68.475 65.5916 68.375 65.4916 68.175C65.1916 67.775 64.5915 67.775 64.1915 68.075C63.7915 68.375 63.7916 68.975 64.0916 69.375C64.4916 69.875 65.0916 70.275 65.7916 70.275C66.1916 70.275 66.4915 70.375 66.8915 70.275C67.9915 69.675 68.6916 68.875 68.9916 67.775C70.6916 67.875 71.9915 66.475 71.8915 64.775L71.5916 61.475C71.4916 60.575 70.2916 59.975 69.5916 59.475L67.4916 56.975C66.3916 56.175 65.0915 55.575 63.6915 55.475L60.6915 55.175C59.7915 55.075 58.9915 55.175 58.1915 55.575L58.2916 57.275Z" fill="#8FC4E5"/>
<path d="M35.5915 57.075C38.1915 57.675 40.4915 59.275 41.8915 61.575L43.1915 63.675C43.4915 64.075 43.9915 64.175 44.3915 63.975C44.7915 63.675 44.8915 63.175 44.6915 62.775L43.3915 60.675C41.6915 57.975 39.0916 56.075 35.9916 55.375L32.3915 54.575C29.4915 53.875 27.1915 57.075 28.7915 59.675C29.3915 60.575 30.2915 61.275 31.3915 61.475C31.9915 61.575 32.4915 61.975 32.7915 62.475C34.2915 64.775 34.2915 64.875 34.5915 65.275C34.7915 68.575 37.3915 71.175 40.5915 71.375C41.0915 71.375 41.4916 71.075 41.4916 70.575C41.4916 70.075 41.1915 69.675 40.6915 69.675C39.1915 69.575 37.8915 68.775 37.0915 67.575C37.7915 67.975 38.4915 68.175 39.1915 68.375C39.6915 68.475 40.1915 68.175 40.2915 67.675C40.3915 67.175 40.0915 66.675 39.5915 66.575C37.9915 66.175 36.5915 65.175 35.6915 63.775L34.2915 61.575C33.6915 60.675 32.7915 59.975 31.6915 59.775C31.0915 59.675 30.5915 59.275 30.2915 58.775C29.8915 58.175 29.9915 57.575 30.3915 56.975C30.7915 56.375 31.3915 56.175 32.0915 56.375L35.5915 57.075Z" fill="#8FC4E5"/>
<path d="M39.4916 87.575L42.2915 85.475C42.6915 85.175 42.7916 84.575 42.4916 84.275C42.1916 83.875 41.5915 83.775 41.2915 84.075L38.4916 86.175C37.9916 86.575 37.3915 86.575 36.8915 86.275C36.3915 85.975 36.0915 85.375 36.1915 84.775C36.2915 84.175 36.5916 83.675 36.9916 83.375C37.7916 82.775 38.3916 81.775 38.4916 80.775L38.7915 78.875C40.6915 79.175 42.7915 79.275 44.7915 78.875C44.5915 79.675 44.2915 80.475 43.7915 81.275C43.5915 81.675 43.6915 82.275 44.0915 82.475C44.4915 82.675 45.0915 82.575 45.2915 82.175C45.9915 81.075 46.3915 79.775 46.5915 78.575L48.4916 78.175C48.9916 78.075 49.2915 77.575 49.1915 77.075C49.0915 76.575 48.5915 76.275 48.0915 76.375L44.8915 77.075C38.2915 78.475 31.5915 75.475 28.1915 69.675C25.7915 65.875 22.5915 62.975 18.8915 60.975C16.9915 59.975 14.7915 60.375 13.3915 61.975C11.3915 64.175 8.49153 65.275 5.59153 64.775C6.99153 62.975 7.89156 60.875 7.99156 58.575C7.99156 57.475 8.79154 56.675 9.79154 56.375L10.5915 56.175C11.0915 56.075 11.3915 55.575 11.2915 55.075C11.1915 54.575 10.6915 54.275 10.1915 54.375L9.39152 54.575C8.39152 54.775 7.29154 54.275 6.79154 53.375C5.79154 51.375 4.09153 49.675 2.09153 48.675C5.29153 46.575 9.59156 46.975 12.4916 49.475C13.5916 50.475 15.1915 50.875 16.6915 50.475C16.7915 50.475 16.5915 50.475 20.0915 49.775C20.5915 49.675 20.8915 49.175 20.7915 48.675C20.6915 48.175 20.1915 47.875 19.6915 47.975C16.0915 48.775 16.3915 48.675 16.1915 48.675C15.2915 48.875 14.2915 48.675 13.5915 48.075C9.99153 44.875 4.69151 44.575 0.691508 47.275C-0.308492 47.975 -0.20848 49.575 0.89152 50.075C2.69152 50.875 4.09156 52.375 4.99156 54.075C5.39156 54.875 6.09154 55.575 6.79154 55.875C6.19154 56.575 5.89152 57.375 5.89152 58.275C5.79152 60.275 5.09154 62.175 3.79154 63.575C2.99154 64.475 3.49151 65.975 4.69151 66.175C8.29151 66.875 11.9916 65.575 14.4916 62.775C15.3916 61.875 16.6915 61.575 17.8915 62.175C21.3915 64.075 24.3916 66.775 26.4916 70.275C28.7916 74.275 32.5915 76.975 36.7915 78.175L36.4916 80.275C36.3916 80.875 36.0915 81.375 35.6915 81.675C34.3915 82.675 33.8915 84.175 34.1915 85.475C34.7915 87.875 37.4916 89.075 39.4916 87.575Z" fill="#8FC4E5"/>
<path d="M55.0916 73.075L58.9916 70.975C59.7916 70.475 63.0916 68.175 64.0916 68.075L65.1916 69.175C65.3916 69.175 59.1916 72.975 60.0916 72.375L54.9916 75.175L51.0916 77.175C50.1916 77.675 49.3916 77.875 48.3916 77.975L47.8916 76.275C48.4916 76.075 49.4916 75.975 50.2916 75.675L55.0916 73.075Z" fill="#8FC4E5"/>
<path fill-rule="evenodd" clip-rule="evenodd" d="M63.6915 50.075C63.9915 49.775 64.1915 49.875 64.3915 50.175L63.7916 54.775L63.0916 54.675L63.6915 50.075Z" fill="#8FC4E5"/>
<path fill-rule="evenodd" clip-rule="evenodd" d="M66.7915 55.075C66.8915 54.575 66.4915 54.175 65.9915 54.075L60.3915 53.375C59.8915 53.275 59.4915 53.675 59.3915 54.175L59.1915 55.475C59.0915 55.975 59.4915 56.375 59.9915 56.475L65.5915 57.175C66.0915 57.275 66.4915 56.875 66.5915 56.375L66.7915 55.075Z" fill="#8FC4E5"/>
<path d="M27.0915 0.674979C26.2915 1.27498 25.7915 2.075 25.7915 3.075C25.7915 3.275 25.8915 3.37499 26.0915 3.37499C26.1915 3.37499 26.2915 3.37502 26.2915 3.27502C26.3915 3.17502 26.3915 3.175 26.3915 3.075C26.4915 2.275 26.7915 1.57498 27.4915 1.17498C28.0915 0.674979 28.8915 0.575016 29.6915 0.775016C29.7915 0.775016 29.8915 0.774979 29.9915 0.674979C30.0915 0.674979 30.0915 0.574967 30.0915 0.474967C30.0915 0.274967 29.9915 0.0750038 29.8915 0.0750038C28.8915 -0.124996 27.8915 0.0749794 27.0915 0.674979Z" fill="#8FC4E5"/>
<path d="M27.8915 1.67499C27.3915 1.97499 27.0916 2.57501 27.0916 3.07501C27.0916 3.27501 27.1915 3.375 27.3915 3.375C27.4915 3.375 27.5916 3.37502 27.5916 3.27502C27.6916 3.17502 27.6915 3.17501 27.6915 3.07501C27.6915 2.67501 27.8915 2.37501 28.1915 2.07501C28.4915 1.87501 28.8916 1.775 29.2916 1.875C29.3916 1.875 29.4916 1.87502 29.5916 1.77502C29.6916 1.77502 29.6915 1.67501 29.6915 1.57501C29.6915 1.37501 29.5916 1.17499 29.4916 1.17499C28.9916 1.17499 28.3915 1.37499 27.8915 1.67499Z" fill="#8FC4E5"/>
<path d="M64.2916 47.475C65.1916 47.575 65.8915 48.075 66.3915 48.775C66.4915 48.875 66.4916 49.075 66.2916 49.175C66.1916 49.175 66.1915 49.275 66.0915 49.175C65.9915 49.175 65.8915 49.075 65.8915 49.075C65.4915 48.475 64.8915 48.075 64.1915 47.975C63.4915 47.875 62.7916 48.075 62.2916 48.575C62.1916 48.675 62.0915 48.675 62.0915 48.675C61.9915 48.675 61.9915 48.675 61.8915 48.575C61.7915 48.475 61.7915 48.275 61.8915 48.175C62.5915 47.675 63.4916 47.375 64.2916 47.475Z" fill="#8FC4E5"/>
<path d="M64.1915 48.675C64.6915 48.775 65.1916 49.075 65.4916 49.475C65.5916 49.575 65.5915 49.775 65.3915 49.875C65.2915 49.875 65.2915 49.975 65.1915 49.875C65.0915 49.875 64.9916 49.775 64.9916 49.775C64.7916 49.475 64.4915 49.275 64.1915 49.275C63.8915 49.275 63.4915 49.375 63.1915 49.575C63.0915 49.675 62.9916 49.675 62.9916 49.675C62.8916 49.675 62.8916 49.675 62.7916 49.575C62.6916 49.475 62.6916 49.275 62.7916 49.175C63.1916 48.775 63.6915 48.675 64.1915 48.675Z" fill="#8FC4E5"/>
</svg>
