<svg width="87" height="100" viewBox="0 0 87 100" fill="none" xmlns="http://www.w3.org/2000/svg">
<path d="M86.5 5.8C83.9 5.7 82.6 4.9 81.3 4.1C80.2 3.4 79.3 2.9 77.3 2.9C75.3 2.9 74.4 3.4 73.3 4.1C72 4.9 70.6 5.8 67.8 5.8C65 5.8 63.5 4.9 62.3 4.1C61.2 3.4 60.3 2.9 58.3 2.9C56.3 2.9 55.4 3.4 54.3 4.1C53 4.9 51.6 5.8 48.8 5.8C45.9 5.8 44.4 4.9 43.1 4.1C42 3.4 41.1 2.9 39.1 2.9C37.1 2.9 36.2 3.4 35.1 4.1C33.8 4.9 32.4 5.8 29.6 5.8C26.8 5.8 25.4 4.9 24.1 4.1C23 3.4 22.1 2.9 20.1 2.9C18.1 2.9 17.2 3.4 16.1 4.1C14.8 4.9 13.4 5.8 10.6 5.8C7.80004 5.8 6.40004 4.9 5.10004 4.1C4.00004 3.4 3.10004 2.9 1.10004 2.9C0.700037 2.9 0.3 2.90001 0 3.00001V0.0999985C0.4 0.0999985 0.700037 0 1.10004 0C3.90004 0 5.30004 0.900005 6.60004 1.7C7.70004 2.4 8.60004 2.9 10.6 2.9C12.6 2.9 13.5 2.4 14.6 1.7C15.9 0.900005 17.3 0 20.1 0C22.9 0 24.4 0.900005 25.6 1.7C26.7 2.4 27.6 2.9 29.6 2.9C31.6 2.9 32.5 2.4 33.6 1.7C34.9 0.900005 36.3 0 39.1 0C41.9 0 43.4 0.900005 44.6 1.7C45.7 2.4 46.6 2.9 48.6 2.9C50.7 2.9 51.6 2.4 52.8 1.7C54.1 0.900005 55.5 0 58.3 0C61.1 0 62.6 0.900005 63.8 1.7C64.9 2.4 65.8 2.9 67.8 2.9C69.8 2.9 70.7 2.4 71.8 1.7C73.1 0.900005 74.5 0 77.3 0C80.1 0 81.5 0.900005 82.8 1.7C83.9 2.4 84.7 2.9 86.5 2.9V5.8Z" fill="#8FC4E5"/>
<path d="M44.1999 11.1C46.4999 11.1 48.7 12.1 50.1 13.9C50.4 14.2 50.2999 14.7 49.9999 15C49.8999 15.1 49.6999 15.2 49.4999 15.2C49.2999 15.2 49.1 15.1 48.9 14.9C47.7 13.5 46 12.7 44.1 12.7C42.3 12.7 40.5 13.5 39.3 14.9C39.1 15.1 38.8999 15.2 38.6999 15.2C38.4999 15.2 38.2999 15.1 38.1999 15C37.8999 14.7 37.8 14.2 38.1 13.9C39.7 12.1 41.8999 11.1 44.1999 11.1Z" fill="#8FC4E5"/>
<path d="M44.1999 14.2C45.5999 14.2 46.9 14.7999 47.8 15.8999C48.1 16.1999 47.9999 16.7 47.6999 17C47.5999 17.1 47.3999 17.2 47.1999 17.2C46.9999 17.2 46.8 17.0999 46.6 16.8999C46 16.1999 45.0999 15.7999 44.1999 15.7999C43.2999 15.7999 42.4 16.1999 41.8 16.8999C41.6 17.0999 41.3999 17.2 41.1999 17.2C40.9999 17.2 40.7999 17.1 40.6999 17C40.3999 16.7 40.3 16.1999 40.6 15.8999C41.5 14.7999 42.7999 14.2 44.1999 14.2Z" fill="#8FC4E5"/>
<path d="M44.2001 33.1V18.3" stroke="#8FC4E5" stroke-width="1.7154" stroke-miterlimit="3.8637" stroke-linecap="round"/>
<path d="M35.6 53.5H50.4" stroke="#8FC4E5" stroke-width="1.7154" stroke-miterlimit="3.8637"/>
<path d="M44.2 26.5H41.5V36.3C39.3 36.7 37 38.2 36.4 41.5C36.3 41.8 35.9 43.9 35.9 43.9V99H49.9V43.9C49.9 43.9 49.4 41.8 49.4 41.5C48.8 38.2 46.5 36.7 44.3 36.3V26.5H44.2Z" stroke="#8FC4E5" stroke-width="1.7154" stroke-miterlimit="3.8637"/>
<path d="M37.4 39.2H48.6" stroke="#8FC4E5" stroke-width="1.7154" stroke-miterlimit="3.8637"/>
<path d="M35.8 98.1H49.9" stroke="#8FC4E5" stroke-width="1.7154" stroke-miterlimit="3.8637"/>
<path d="M41.8 36.2H43.8" stroke="#8FC4E5" stroke-width="1.7154" stroke-miterlimit="3.8637"/>
<path d="M36.1 94.2H50.2" stroke="#8FC4E5" stroke-width="1.7154" stroke-miterlimit="3.8637"/>
<path d="M33.6 50.2H51.9999" stroke="#8FC4E5" stroke-width="1.7155" stroke-miterlimit="3.8637" stroke-linecap="round"/>
</svg>
