<svg width="80" height="61" viewBox="0 0 80 61" fill="none" xmlns="http://www.w3.org/2000/svg">
<path d="M22.4 7.15002H21.4V13.05H22.4V7.15002Z" fill="#8FC4E5"/>
<path d="M24.6 7.15002H20.5V8.05002H24.6V7.15002Z" fill="#8FC4E5"/>
<path fill-rule="evenodd" clip-rule="evenodd" d="M18.6 7.54999C18.6 6.84999 19.2 6.25 19.9 6.25C20.6 6.25 21.2 6.84999 21.2 7.54999C21.2 8.24999 20.6 8.85001 19.9 8.85001C19.2 8.85001 18.6 8.24999 18.6 7.54999Z" fill="#8FC4E5"/>
<path fill-rule="evenodd" clip-rule="evenodd" d="M22.7 7.54999C22.7 6.84999 23.2999 6.25 23.9999 6.25C24.6999 6.25 25.2999 6.84999 25.2999 7.54999C25.2999 8.24999 24.6999 8.85001 23.9999 8.85001C23.2999 8.85001 22.7 8.24999 22.7 7.54999Z" fill="#8FC4E5"/>
<path d="M44.1 22.65H16.6V25.15H44.1V22.65Z" fill="#8FC4E5"/>
<path d="M44 26.45H41.5V28.95H44V26.45Z" fill="#8FC4E5"/>
<path d="M19.1 26.45H16.6V28.95H19.1V26.45Z" fill="#8FC4E5"/>
<path d="M31.6 14.55H29.1V17.05H31.6V14.55Z" fill="#8FC4E5"/>
<path d="M35.3 14.55H32.8V17.05H35.3V14.55Z" fill="#8FC4E5"/>
<path d="M27.8 14.55H25.3V17.05H27.8V14.55Z" fill="#8FC4E5"/>
<path d="M24.1 14.55H21.6V17.05H24.1V14.55Z" fill="#8FC4E5"/>
<path d="M39 14.55H36.5V17.05H39V14.55Z" fill="#8FC4E5"/>
<path d="M53.7 38.95L31.5 28.95V31.85L52.8 41.65L53.7 38.95ZM19.7 13.35V18.35H40.9V13.35H19.7ZM14.1 22.05V32.95L29.8 25.85C30.1 25.75 30.5 25.75 30.8 25.85L46.5 32.95V22.05C46.5 21.35 45.9 20.85 45.3 20.85H42.2H18.5H15.4C14.6 20.85 14.1 21.35 14.1 22.05ZM6.90001 38.95L7.8 41.65L29.1 31.85V28.95L6.90001 38.95ZM47.7 56.95L52 44.05L31.5 34.65V49.55H29.1V34.65L8.6 44.05L12.9 56.95H10.3L4.20001 38.75C4.00001 38.15 4.30001 37.45 4.90001 37.25L11.7 34.25V22.25C11.7 20.15 13.4 18.55 15.4 18.55H17.3V12.35C17.3 11.65 17.9 11.15 18.5 11.15H29.1H31.6H42.2C42.9 11.15 43.4 11.75 43.4 12.35V18.55H45.3C47.4 18.55 49 20.25 49 22.25V34.25L55.8 37.25C56.4 37.55 56.7 38.15 56.5 38.75L50.4 56.95H47.7Z" fill="#8FC4E5"/>
<path d="M10.4 59.15C12.5 57.55 15.4 57.55 17.5 59.15C20.5 61.45 24.8 61.45 27.8 59.15C29.9 57.55 32.8 57.55 34.9 59.15C37.9 61.45 42.2 61.45 45.2 59.15C47.3 57.55 50.2 57.55 52.3 59.15C55.3 61.45 59.6 61.45 62.6 59.15C64.7 57.55 67.6 57.55 69.7 59.15C72.7 61.45 77 61.45 80 59.15L78.4 57.05C76.3 58.65 73.4 58.65 71.3 57.05C68.3 54.75 64 54.75 61 57.05C58.9 58.65 56 58.65 53.9 57.05C52.4 55.95 50.6 55.35 48.7 55.35C46.9 55.35 45.1 55.95 43.5 57.05C41.4 58.65 38.5 58.65 36.4 57.05C33.4 54.75 29.1 54.75 26.1 57.05C24 58.65 21.1 58.65 19 57.05C16 54.75 11.7 54.75 8.70001 57.05C6.60001 58.65 3.70001 58.65 1.60001 57.05L0 59.15C3.2 61.45 7.40001 61.45 10.4 59.15Z" fill="#8FC4E5"/>
<path d="M30.2 11.45V4.04999" stroke="#8FC4E5" stroke-width="1.7035" stroke-miterlimit="3.8637" stroke-linecap="round"/>
<path d="M32.2 11.55C32.2 11.55 30.4 6.15002 30.3 6.15002C30.2 6.15002 28.3 11.65 28.3 11.65" stroke="#8FC4E5" stroke-width="1.0302" stroke-miterlimit="3.8637" stroke-linecap="round"/>
<path d="M61.7 21.75L53.8 22.45L54.5 14.55" stroke="#8FC4E5" stroke-width="1.1727" stroke-miterlimit="3.8637"/>
<path fill-rule="evenodd" clip-rule="evenodd" d="M71.7 19.25C75.9 15.05 75.9 8.35 71.7 4.15C67.5 -0.05 60.8 -0.05 56.6 4.15C52.4 8.35 52.4 15.05 56.6 19.25C60.8 23.45 67.6 23.45 71.7 19.25Z" stroke="#8FC4E5" stroke-width="1.9545" stroke-miterlimit="3.8637"/>
<path fill-rule="evenodd" clip-rule="evenodd" d="M53.8 23.85C54.1 23.55 54.1 23.05 53.8 22.75L53.6 22.55C53.3 22.25 52.8 22.25 52.5 22.55L51.6 23.45C51.3 23.75 51.3 24.25 51.6 24.55L51.8 24.75C52.1 25.05 52.6 25.05 52.9 24.75L53.8 23.85Z" fill="#1F89CB" stroke="#8FC4E5" stroke-width="1.3682" stroke-miterlimit="3.8637"/>
</svg>
