<svg width="70" height="71" viewBox="0 0 70 71" fill="none" xmlns="http://www.w3.org/2000/svg">
<path d="M35.6 27V34H38.9L41.3 42.2C49.6 45.1 55.5 53 55.5 62.3V62.8H12.9V62.3C12.9 53 18.8 45.1 27.1 42.2L29.5 34H32.8V27H31.9V11H36.4V27H35.6Z" stroke="#8FC4E5" stroke-width="4.172" stroke-miterlimit="3.8637"/>
<path d="M26.9 41.2H41.8" stroke="#8FC4E5" stroke-width="2.086" stroke-miterlimit="3.8637"/>
<path d="M69.3 62.2C67 62.1 65.8 61.4 64.7 60.7C63.7 60.1 62.9 59.6 61.2 59.6C59.5 59.6 58.7 60.1 57.7 60.7C56.6 61.4 55.3 62.2 52.8 62.2C50.3 62.2 49.1 61.4 47.9 60.7C46.9 60.1 46.1 59.6 44.4 59.6C42.7 59.6 41.9 60.1 40.9 60.7C39.8 61.4 38.5 62.2 36 62.2C33.4 62.2 32.1 61.4 31 60.7C30 60.1 29.2 59.6 27.5 59.6C25.8 59.6 25 60.1 24 60.7C22.9 61.4 21.6 62.2 19.1 62.2C16.6 62.2 15.4 61.4 14.2 60.7C13.2 60.1 12.4 59.6 10.7 59.6C9 59.6 8.2 60.1 7.2 60.7C6.1 61.4 4.79999 62.2 2.29999 62.2C1.59999 62.2 1 62.1 0.5 62C0.3 61 0.1 60.1 0 59.2C0.6 59.5 1.29999 59.6 2.29999 59.6C3.99999 59.6 4.79999 59.1 5.79999 58.5C6.89999 57.8 8.2 57 10.7 57C13.2 57 14.4 57.8 15.6 58.5C16.6 59.1 17.4 59.6 19.1 59.6C20.8 59.6 21.6 59.1 22.6 58.5C23.7 57.8 25 57 27.5 57C30 57 31.2 57.8 32.4 58.5C33.4 59.1 34.2 59.6 35.9 59.6C37.8 59.6 38.6 59.1 39.6 58.5C40.7 57.8 42 57 44.5 57C47 57 48.2 57.8 49.4 58.5C50.4 59.1 51.2 59.6 52.9 59.6C54.6 59.6 55.4 59.1 56.4 58.5C57.5 57.8 58.8 57 61.3 57C63.8 57 65 57.8 66.2 58.5C67.1 59.1 67.9 59.5 69.4 59.6V62.2H69.3Z" fill="#8FC4E5"/>
<path d="M14.4 52.4H32.2" stroke="#8FC4E5" stroke-width="2.5032" stroke-miterlimit="3.8637"/>
<path d="M34.3 0C37 0 39.5 1.2 41.2 3.2C41.5 3.6 41.5 4.1 41.1 4.5C40.9 4.6 40.7 4.7 40.5 4.7C40.2 4.7 40 4.6 39.8 4.4C38.4 2.8 36.4 1.8 34.3 1.8C32.2 1.8 30.2 2.7 28.8 4.4C28.6 4.6 28.4 4.7 28.1 4.7C27.9 4.7 27.7 4.6 27.5 4.5C27.1 4.2 27.1 3.6 27.4 3.2C29.2 1.2 31.7 0 34.3 0Z" fill="#8FC4E5"/>
<path d="M34.3 3.59998C35.9 3.59998 37.4 4.29998 38.4 5.49998C38.7 5.89998 38.7 6.39998 38.3 6.79998C38.1 6.89998 37.9 6.99998 37.7 6.99998C37.4 6.99998 37.2 6.89997 37 6.69997C36.3 5.89997 35.3 5.39998 34.2 5.39998C33.1 5.39998 32.1 5.89997 31.4 6.69997C31.2 6.89997 31 6.99998 30.7 6.99998C30.5 6.99998 30.3 6.89998 30.1 6.79998C29.7 6.49998 29.7 5.89998 30 5.49998C31.2 4.29998 32.7 3.59998 34.3 3.59998Z" fill="#8FC4E5"/>
</svg>
