<svg width="86" height="87" viewBox="0 0 86 87" fill="none" xmlns="http://www.w3.org/2000/svg">
<path fill-rule="evenodd" clip-rule="evenodd" d="M40.6 67.1V36.7H48.1L59.6 67.1H40.6Z" stroke="#8FC4E5" stroke-width="2.3779" stroke-miterlimit="3.8637"/>
<path fill-rule="evenodd" clip-rule="evenodd" d="M40.6 67.1V36.7H33.1L21.5 67.1H40.6Z" stroke="#8FC4E5" stroke-width="2.3779" stroke-miterlimit="3.8637"/>
<path fill-rule="evenodd" clip-rule="evenodd" d="M40.7 15.7V36.1H34.6L29.4 18.4C31.9 16.6 35.9 15.5 40.7 15.7Z" stroke="#8FC4E5" stroke-width="1.9309" stroke-miterlimit="3.8637"/>
<path fill-rule="evenodd" clip-rule="evenodd" d="M40.5 15.7V36.1H46.6L51.8 18.4C49.2 16.6 45.2 15.4 40.5 15.7Z" stroke="#8FC4E5" stroke-width="1.9309" stroke-miterlimit="3.8637"/>
<path fill-rule="evenodd" clip-rule="evenodd" d="M15.5 70.6C15.5 68.1 17.5 66.1 20 66.1H62.6C65.1 66.1 67.1 68.1 67.1 70.6V78.6C67.1 81.1 65.1 83.1 62.6 83.1H20C17.5 83.1 15.5 81.1 15.5 78.6V70.6Z" stroke="#8FC4E5" stroke-width="2.0972" stroke-miterlimit="3.8637"/>
<path fill-rule="evenodd" clip-rule="evenodd" d="M39.8 5.60002C40.3 5.00002 40.9 5.00002 41.4 5.60002V15.7H39.8V5.60002Z" fill="#8FC4E5"/>
<path d="M43.1221 37.5743L41.6449 37.8347L46.5404 65.606L48.0176 65.3456L43.1221 37.5743Z" fill="#8FC4E5"/>
<path d="M47.7221 37.2838L46.3433 37.5269L51.2562 65.3967L52.6349 65.1536L47.7221 37.2838Z" fill="#8FC4E5"/>
<path d="M51.6 61.4H46.4V62.5H51.6V61.4Z" fill="#8FC4E5"/>
<path d="M51 57.6H45.8V58.7H51V57.6Z" fill="#8FC4E5"/>
<path d="M50.3999 54H45.2V55.1H50.3999V54Z" fill="#8FC4E5"/>
<path d="M47.8 39.7H42.6V40.8H47.8V39.7Z" fill="#8FC4E5"/>
<path d="M48.8999 46.3H43.7V47.4H48.8999V46.3Z" fill="#8FC4E5"/>
<path d="M48.5 43H43.3V44.1H48.5V43Z" fill="#8FC4E5"/>
<path d="M50.8 11.3H49.7V17.4H50.8V11.3Z" fill="#8FC4E5"/>
<path d="M51.6 11.2H47.4V12.2H51.6V11.2Z" fill="#8FC4E5"/>
<path fill-rule="evenodd" clip-rule="evenodd" d="M51 11.7C51 11 51.6 10.4 52.3 10.4C53 10.4 53.6 11 53.6 11.7C53.6 12.4 53 13 52.3 13C51.6 13 51 12.4 51 11.7Z" fill="#8FC4E5"/>
<path d="M48.1 13C48.818 13 49.4 12.418 49.4 11.7C49.4 10.982 48.818 10.4 48.1 10.4C47.382 10.4 46.8 10.982 46.8 11.7C46.8 12.418 47.382 13 48.1 13Z" fill="#8FC4E5"/>
<path fill-rule="evenodd" clip-rule="evenodd" d="M28.8 15.1C29.6 14.2 29.8 14.7 30.3 15.1V19.6H28.8V15.1Z" fill="#8FC4E5"/>
<path d="M16.3 71.1H41.8" stroke="#8FC4E5" stroke-width="1.7835" stroke-miterlimit="3.8637"/>
<path d="M29 25H51.9" stroke="#8FC4E5" stroke-width="1.7835" stroke-miterlimit="3.8637" stroke-linecap="round"/>
<path d="M85.2 77.9C84.9 77.8 84.6 77.8 84.3 77.8C83.1 77.8 82.5 78.1 81.8 78.6C81 79.1 80.1 79.6 78.3 79.6C76.5 79.6 75.6 79 74.8 78.6C74.1 78.2 73.5 77.8 72.3 77.8H72.2C71 77.8 70.4 78.1 69.7 78.6C68.9 79.1 68 79.6 66.2 79.6C64.5 79.6 63.5 79 62.7 78.6C62 78.2 61.4 77.8 60.2 77.8C59 77.8 58.4 78.1 57.7 78.6C56.9 79.1 56 79.6 54.2 79.6C52.4 79.6 51.5 79 50.7 78.6C50 78.2 49.4 77.8 48.2 77.8C47 77.8 46.4 78.1 45.7 78.6C44.9 79.1 44 79.6 42.2 79.6C40.4 79.6 39.5 79 38.7 78.6C38 78.2 37.4 77.8 36.2 77.8C35 77.8 34.4 78.1 33.7 78.6C32.9 79.1 32 79.6 30.2 79.6C28.4 79.6 27.4 79 26.6 78.6C25.9 78.2 25.3 77.8 24.1 77.8C22.9 77.8 22.3 78.1 21.6 78.6C20.8 79.1 19.9 79.6 18.1 79.6C16.4 79.6 15.4 79 14.6 78.6C13.9 78.2 13.3 77.8 12.1 77.8C10.9 77.8 10.3 78.1 9.60001 78.6C8.80001 79.1 7.90001 79.6 6.10001 79.6C4.30001 79.6 3.40001 79 2.60001 78.6C2.10001 78.3 1.70001 78.1 1.10001 77.9C0.700006 77.3 0.4 76.6 0 76H0.100006C1.90001 76 2.80001 76.6 3.60001 77C4.30001 77.4 4.90001 77.8 6.10001 77.8C7.30001 77.8 7.90001 77.5 8.60001 77C9.40001 76.5 10.3 76 12.1 76C13.9 76 14.8 76.6 15.6 77C16.3 77.4 16.9 77.8 18.1 77.8C19.3 77.8 19.9 77.5 20.6 77C21.4 76.5 22.3 76 24.1 76C25.9 76 26.8 76.6 27.6 77C28.3 77.4 28.9 77.8 30.1 77.8C31.4 77.8 32 77.5 32.7 77C33.5 76.5 34.4 76 36.2 76C38 76 38.9 76.6 39.7 77C40.4 77.4 41 77.8 42.2 77.8C43.4 77.8 44 77.5 44.7 77C45.5 76.5 46.4 76 48.2 76C50 76 50.9 76.6 51.7 77C52.4 77.4 53 77.8 54.2 77.8C55.4 77.8 56 77.5 56.7 77C57.5 76.5 58.4 76 60.2 76C61.9 76 62.9 76.6 63.7 77C64.4 77.4 65 77.8 66.2 77.8C67.4 77.8 68 77.5 68.7 77C69.5 76.5 70.4 76 72.2 76H72.3C74.1 76 75 76.6 75.8 77C76.5 77.4 77.1 77.8 78.3 77.8C79.5 77.8 80.1 77.5 80.8 77C81.6 76.5 82.5 76 84.3 76C84.6 76 85 76 85.2 76.1V77.9Z" fill="#8FC4E5"/>
<path d="M23.3 50.6H56.5" stroke="#8FC4E5" stroke-width="1.7835" stroke-miterlimit="3.8637" stroke-linecap="round"/>
<path d="M40.5 0C42.4 0 44.2 0.800049 45.4 2.30005C45.6 2.60005 45.6 3.00001 45.3 3.20001C45.2 3.30001 45 3.30005 44.9 3.30005C44.7 3.30005 44.5 3.20004 44.4 3.10004C43.4 1.90004 42 1.30005 40.5 1.30005C39 1.30005 37.6 2.00004 36.6 3.10004C36.5 3.30004 36.3 3.30005 36.1 3.30005C36 3.30005 35.8 3.30001 35.7 3.20001C35.4 3.00001 35.4 2.60005 35.6 2.30005C36.8 0.800049 38.6 0 40.5 0Z" fill="#8FC4E5"/>
<path d="M40.5 2.60004C41.6 2.60004 42.7 3.1 43.4 4C43.6 4.3 43.6 4.70002 43.3 4.90002C43.2 5.00002 43 5 42.9 5C42.7 5 42.5 4.90005 42.4 4.80005C41.9 4.20005 41.2 3.90002 40.4 3.90002C39.6 3.90002 38.9 4.20005 38.4 4.80005C38.3 5.00005 38.1 5 37.9 5C37.8 5 37.6 5.00002 37.5 4.90002C37.2 4.70002 37.2 4.3 37.4 4C38.3 3.1 39.4 2.60004 40.5 2.60004Z" fill="#8FC4E5"/>
</svg>
