<svg width="111" height="120" viewBox="0 0 111 120" fill="none" xmlns="http://www.w3.org/2000/svg">
<path d="M48.0999 15.277H46.7999V22.777H48.0999V15.277Z" fill="#8FC4E5"/>
<path d="M49.2 15.0771H44V16.277H49.2V15.0771Z" fill="#8FC4E5"/>
<path fill-rule="evenodd" clip-rule="evenodd" d="M48.5 15.6771C48.5 14.7771 49.2 14.0771 50.1 14.0771C51 14.0771 51.7 14.7771 51.7 15.6771C51.7 16.5771 51 17.277 50.1 17.277C49.2 17.277 48.5 16.5771 48.5 15.6771Z" fill="#8FC4E5"/>
<path fill-rule="evenodd" clip-rule="evenodd" d="M43.2999 15.6771C43.2999 14.7771 43.9999 14.0771 44.8999 14.0771C45.7999 14.0771 46.4999 14.7771 46.4999 15.6771C46.4999 16.5771 45.7999 17.277 44.8999 17.277C43.9999 17.277 43.2999 16.5771 43.2999 15.6771Z" fill="#8FC4E5"/>
<path fill-rule="evenodd" clip-rule="evenodd" d="M70.4 46.1771H60.2V110.077L70.4 112.077V46.1771Z" stroke="#8FC4E5" stroke-width="2.0995" stroke-miterlimit="3.8637"/>
<path fill-rule="evenodd" clip-rule="evenodd" d="M25.6 46.6771H15.5V99.9771L25.6 102.677V46.6771Z" stroke="#8FC4E5" stroke-width="2.0995" stroke-miterlimit="3.8637"/>
<path fill-rule="evenodd" clip-rule="evenodd" d="M47.7999 20.1771L56.2999 16.8771L64.8999 20.1771V33.0771V45.9771H56.3999H47.7999V33.0771V20.1771Z" stroke="#8FC4E5" stroke-width="2.7184" stroke-miterlimit="3.8637"/>
<path d="M73.7 45.9771H4.90002V56.1771H73.7V45.9771Z" stroke="#8FC4E5" stroke-width="2.0995" stroke-miterlimit="3.8637"/>
<path d="M86.5 36.4771L89.1 34.9771L91.7 36.4771L92.4 40.9771L93.1 45.4771H89.1H85.2L85.9 40.9771L86.5 36.4771Z" fill="#8FC4E5"/>
<path d="M66.7 9.37706C68.2 10.7771 68.7 12.8771 67.9 14.8771V14.977L58.9 11.177V11.0771C59.7 9.07707 61.7 7.97707 63.7 8.07707C64.9 8.07707 65.9 8.47706 66.7 9.37706Z" stroke="#8FC4E5" stroke-width="4.4752" stroke-miterlimit="3.8637"/>
<path d="M61.5107 13.9673L59.8199 17.5925L61.9951 18.607L63.6859 14.9818L61.5107 13.9673Z" fill="#8FC4E5"/>
<path fill-rule="evenodd" clip-rule="evenodd" d="M78.8 98.777C78.6 98.777 78.4 98.5771 78.4 98.3771V97.4771C78.4 97.2771 78.6 97.0771 78.8 97.0771H99.4C99.6 97.0771 99.8 97.2771 99.8 97.4771V98.3771C99.8 98.5771 99.6 98.777 99.4 98.777H78.8Z" fill="#8FC4E5"/>
<path fill-rule="evenodd" clip-rule="evenodd" d="M83.1 50.9771C83.1 47.9771 85.5 45.5771 88.5 45.5771H89.7C92.7 45.5771 95.1 47.9771 95.1 50.9771V90.5771C95.1 93.5771 92.7 95.9771 89.7 95.9771H88.5C85.5 95.9771 83.1 93.5771 83.1 90.5771V50.9771Z" stroke="#8FC4E5" stroke-width="2.5573" stroke-miterlimit="3.8637"/>
<path d="M81.9 51.3771H74.6V52.5771H81.9V51.3771Z" fill="#8FC4E5"/>
<path d="M78.5 39.6771H77.1V83.9771H78.5V39.6771Z" fill="#8FC4E5"/>
<path fill-rule="evenodd" clip-rule="evenodd" d="M76.1 85.277C76.1 84.377 76.8 83.6771 77.7 83.6771C78.6 83.6771 79.3 84.377 79.3 85.277C79.3 86.177 78.6 86.8771 77.7 86.8771C76.9 86.8771 76.1 86.177 76.1 85.277Z" fill="#8FC4E5"/>
<path d="M109.7 73.5771C109.4 73.4771 109 73.4771 108.5 73.4771C107 73.4771 106.3 73.8771 105.4 74.3771C104.4 74.9771 103.3 75.6771 101.2 75.6771C99.1 75.6771 98 74.9771 97 74.3771C96.1 73.8771 95.4 73.4771 93.9 73.4771H93.8C92.3 73.4771 91.6 73.8771 90.7 74.3771C89.7 74.9771 88.6 75.6771 86.5 75.6771C84.4 75.6771 83.3 74.9771 82.3 74.3771C81.4 73.8771 80.7 73.4771 79.2 73.4771C77.7 73.4771 77 73.8771 76.1 74.3771C75.1 74.9771 74 75.6771 71.9 75.6771C69.8 75.6771 68.7 74.9771 67.7 74.3771C66.8 73.8771 66.1 73.4771 64.6 73.4771C63.1 73.4771 62.4 73.8771 61.5 74.3771C60.5 74.9771 59.4 75.6771 57.3 75.6771C55.2 75.6771 54.1 74.9771 53.1 74.3771C52.2 73.8771 51.5 73.3771 50 73.3771C48.5 73.3771 47.8 73.777 46.9 74.277C45.9 74.877 44.8 75.5771 42.7 75.5771C40.5 75.5771 39.3 74.877 38.4 74.277C37.5 73.777 36.8 73.3771 35.3 73.3771C33.8 73.3771 33.1 73.7771 32.2 74.3771C31.2 74.9771 30.1 75.6771 28 75.6771C25.9 75.6771 24.8 74.9771 23.8 74.3771C22.9 73.8771 22.2 73.4771 20.7 73.4771C19.2 73.4771 18.5 73.8771 17.6 74.3771C16.6 74.9771 15.5 75.6771 13.4 75.6771C11.3 75.6771 10.2 74.9771 9.19995 74.3771C8.29995 73.8771 7.59998 73.4771 6.09998 73.4771C5.79998 73.4771 5.49995 73.4771 5.19995 73.5771V71.3771C5.49995 71.3771 5.79998 71.3771 6.09998 71.3771C8.19998 71.3771 9.29999 72.0771 10.3 72.6771C11.2 73.1771 11.9 73.5771 13.4 73.5771C14.9 73.5771 15.6 73.1771 16.5 72.6771C17.5 72.0771 18.6 71.3771 20.7 71.3771C22.8 71.3771 23.9 72.0771 24.9 72.6771C25.8 73.1771 26.5 73.5771 28 73.5771C29.5 73.5771 30.2 73.1771 31.1 72.5771C32.1 71.9771 33.2 71.277 35.3 71.277C37.4 71.277 38.5 71.9771 39.5 72.5771C40.4 73.0771 41.1 73.5771 42.6 73.5771C44.2 73.5771 44.9 73.1771 45.8 72.5771C46.8 71.9771 47.9 71.277 50 71.277C52.1 71.277 53.2 71.9771 54.2 72.5771C55.1 73.0771 55.8 73.5771 57.3 73.5771C58.8 73.5771 59.5 73.1771 60.4 72.6771C61.4 72.0771 62.5 71.3771 64.6 71.3771C66.7 71.3771 67.8 72.0771 68.8 72.6771C69.7 73.1771 70.4 73.5771 71.9 73.5771C73.4 73.5771 74.1 73.1771 75 72.6771C76 72.0771 77.1 71.3771 79.2 71.3771C81.3 71.3771 82.4 72.0771 83.4 72.6771C84.3 73.1771 85 73.5771 86.5 73.5771C88 73.5771 88.7 73.1771 89.6 72.6771C90.6 72.0771 91.7 71.3771 93.8 71.3771H93.9C96 71.3771 97.1 72.0771 98.1 72.6771C99 73.1771 99.7 73.5771 101.2 73.5771C102.7 73.5771 103.4 73.1771 104.3 72.6771C105.3 72.0771 106.4 71.3771 108.5 71.3771C108.9 71.3771 109.3 71.3771 109.7 71.4771V73.5771Z" fill="#8FC4E5"/>
<path d="M57.7 63.8771H98.2" stroke="#8FC4E5" stroke-width="2.1747" stroke-miterlimit="3.8637" stroke-linecap="round"/>
<path d="M57.9 79.777H98.4" stroke="#8FC4E5" stroke-width="2.1747" stroke-miterlimit="3.8637" stroke-linecap="round"/>
<path d="M85.9999 87.6771C85.8999 86.6771 85.3999 85.7771 84.2999 84.8771H88.7999H89.4999H93.9999C92.8999 85.8771 92.3999 86.7771 92.2999 87.6771C92.3999 88.5771 92.8999 89.4771 93.9999 90.4771H89.4999H88.7999H84.2999C85.3999 89.5771 85.8999 88.5771 85.9999 87.6771Z" fill="#8FC4E5"/>
<path d="M90.3 44.277H88V95.1771H90.3V44.277Z" fill="#8FC4E5"/>
<path d="M25.5999 97.777H19.2999V98.777H25.5999V97.777Z" fill="#8FC4E5"/>
<path d="M25.5999 94.1771H19.2999V95.1771H25.5999V94.1771Z" fill="#8FC4E5"/>
<path d="M25.5999 90.4771H19.2999V91.4771H25.5999V90.4771Z" fill="#8FC4E5"/>
<path d="M25.5999 86.8771H19.2999V87.8771H25.5999V86.8771Z" fill="#8FC4E5"/>
<path d="M25.5999 83.277H19.2999V84.277H25.5999V83.277Z" fill="#8FC4E5"/>
<path d="M25.5999 79.6771H19.2999V80.6771H25.5999V79.6771Z" fill="#8FC4E5"/>
<path d="M25.5999 75.9771H19.2999V76.9771H25.5999V75.9771Z" fill="#8FC4E5"/>
<path d="M25.5999 72.3771H19.2999V73.3771H25.5999V72.3771Z" fill="#8FC4E5"/>
<path d="M25.5999 68.777H19.2999V69.777H25.5999V68.777Z" fill="#8FC4E5"/>
<path d="M25.5999 65.1771H19.2999V66.1771H25.5999V65.1771Z" fill="#8FC4E5"/>
<path d="M25.5999 61.4771H19.2999V62.4771H25.5999V61.4771Z" fill="#8FC4E5"/>
<path d="M25.5999 57.8771H19.2999V58.8771H25.5999V57.8771Z" fill="#8FC4E5"/>
<path d="M78.3 39.5771H65.9V40.8771H78.3V39.5771Z" fill="#8FC4E5"/>
<path d="M107 118.177C107.1 118.177 19 105.677 1.09998 94.1771" stroke="#8FC4E5" stroke-width="2.5573" stroke-miterlimit="3.8637"/>
<path d="M14.3 35.0771C16.2 35.7771 17.6 37.5771 17.6 39.6771V39.777H7.90002V39.6771C7.90002 37.5771 9.30001 35.7771 11.2 35.0771C12.2 34.5771 13.2 34.5771 14.3 35.0771Z" stroke="#8FC4E5" stroke-width="4.4752" stroke-miterlimit="3.8637"/>
<path d="M11.0616 41.5388L10.9215 45.5364L13.32 45.6205L13.4601 41.6229L11.0616 41.5388Z" fill="#8FC4E5"/>
<path d="M69.8 0.777061C71.9 1.77706 73.4 3.6771 74 5.8771C74.1 6.2771 73.9 6.67706 73.4 6.77706C73.2 6.77706 73 6.77709 72.9 6.67709C72.7 6.57709 72.5 6.37709 72.5 6.17709C72 4.37709 70.8 2.87711 69.2 2.07711C67.5 1.27711 65.6 1.27707 63.9 1.97707C63.7 2.07707 63.4 2.07707 63.2 1.97707C63 1.87707 62.9 1.77711 62.8 1.57711C62.6 1.17711 62.8 0.67711 63.2 0.57711C65.3 -0.22289 67.7 -0.222939 69.8 0.777061Z" fill="#8FC4E5"/>
<path d="M68.5001 3.57708C69.7001 4.17708 70.7001 5.27705 71.0001 6.67705C71.1001 7.07705 70.9001 7.47708 70.4001 7.57708C70.2001 7.57708 70.0001 7.57704 69.9001 7.47704C69.7001 7.37704 69.5001 7.17704 69.5001 6.97704C69.3001 6.07704 68.7001 5.37704 67.8001 4.97704C67.0001 4.57704 66 4.57704 65.2 4.97704C65 5.07704 64.7001 5.07704 64.5001 4.97704C64.3001 4.87704 64.2001 4.77708 64.1001 4.57708C63.9001 4.17708 64.1001 3.67708 64.5001 3.57708C65.8001 2.97708 67.2001 2.97708 68.5001 3.57708Z" fill="#8FC4E5"/>
</svg>
