<svg width="108" height="94" viewBox="0 0 108 94" fill="none" xmlns="http://www.w3.org/2000/svg">
<path d="M96.4 91.9H75V93.4H96.4V91.9Z" fill="#8FC4E5"/>
<path d="M107.9 59.6C107 59.9 105.9 60.1 104.5 60.1C101.1 60.1 99.4 59 97.9 58.1C96.5 57.3 95.5 56.6 93.1 56.6C90.7 56.6 89.6 57.3 88.3 58.1C86.8 59 85 60.1 81.7 60.1C78.3 60.1 76.6 59 75 58.1C73.6 57.3 72.5 56.6 70.2 56.6C67.8 56.6 66.7 57.3 65.4 58.1C63.9 59 62.1 60.1 58.7 60.1C55.2 60.1 53.4 59 51.9 58.1C50.5 57.3 49.4 56.6 47.1 56.6C44.8 56.6 43.6 57.3 42.3 58.1C40.8 59 39 60.1 35.6 60.1C32.2 60.1 30.5 59 29 58.1C27.6 57.3 26.5 56.6 24.2 56.6C21.8 56.6 20.7 57.3 19.4 58.1C17.9 59 16.1 60.1 12.8 60.1C9.49999 60.1 7.70001 59 6.20001 58.1C4.80001 57.3 3.80002 56.6 1.40002 56.6C0.900024 56.6 0.4 56.6 0 56.7V53.1C0.4 53.1 0.900024 53 1.40002 53C4.80002 53 6.5 54.1 8 55C9.4 55.8 10.4 56.5 12.8 56.5C15.2 56.5 16.3 55.8 17.6 55C19.1 54.1 20.9 53 24.2 53C27.5 53 29.3 54.1 30.8 55C32.2 55.8 33.3 56.5 35.6 56.5C38 56.5 39.1 55.8 40.4 55C41.9 54.1 43.7 53 47.1 53C50.5 53 52.2 54.1 53.8 55C55.2 55.8 56.3 56.5 58.6 56.5C61.2 56.5 62.2 55.8 63.6 55C65.1 54.1 66.9 53 70.3 53C73.7 53 75.4 54.1 77 55C78.4 55.8 79.5 56.5 81.8 56.5C84.2 56.5 85.3 55.8 86.6 55C88.1 54.1 89.9 53 93.2 53C96.5 53 98.3 54.1 99.8 55C101.2 55.8 102.2 56.5 104.6 56.5C106.1 56.5 107.1 56.2 108 55.8V59.6H107.9Z" fill="#8FC4E5"/>
<path d="M74.9 75C82.5 73.7 89.5 73.7 95.9 75" stroke="#8FC4E5" stroke-width="2.0123" stroke-miterlimit="3.8637" stroke-linecap="round"/>
<path d="M78.1 76.1H76.1V91.3H78.1V76.1Z" fill="#8FC4E5"/>
<path d="M81 76.1H79V91.3H81V76.1Z" fill="#8FC4E5"/>
<path d="M83.8 76.1H81.8V91.3H83.8V76.1Z" fill="#8FC4E5"/>
<path d="M86.7 76.1H84.7V91.3H86.7V76.1Z" fill="#8FC4E5"/>
<path d="M89.6 76.1H87.6V91.3H89.6V76.1Z" fill="#8FC4E5"/>
<path d="M92.4 76.1H90.4V91.3H92.4V76.1Z" fill="#8FC4E5"/>
<path d="M95.3 76.1H93.3V91.3H95.3V76.1Z" fill="#8FC4E5"/>
<path d="M55.8 19.3H29.3V21.7H55.8V19.3Z" fill="#8FC4E5"/>
<path d="M43.7001 11.5H41.3V13.9H43.7001V11.5Z" fill="#8FC4E5"/>
<path d="M47.3 11.5H44.9V13.9H47.3V11.5Z" fill="#8FC4E5"/>
<path d="M40.0999 11.5H37.7V13.9H40.0999V11.5Z" fill="#8FC4E5"/>
<path d="M36.5 11.5H34.1V13.9H36.5V11.5Z" fill="#8FC4E5"/>
<path d="M51 11.5H48.6V13.9H51V11.5Z" fill="#8FC4E5"/>
<path d="M65.0999 35L43.7 25.4V28.2L64.2 37.6L65.0999 35ZM32.2999 10.2V15H52.7999V10.2H32.2999ZM26.9 18.7V29.2L42.0999 22.4C42.3999 22.3 42.7999 22.3 43.0999 22.4L58.2999 29.2V18.7C58.2999 18 57.7999 17.5 57.0999 17.5H54.0999H31.2H28.2C27.4 17.5 26.9 18 26.9 18.7ZM19.9 35L20.7999 37.6L41.2999 28.2V25.4L19.9 35ZM57.7999 57.6L63.5 39.9L43.7 30.8V45.2H41.2999V30.8L21.5 39.9L27.0999 56.9L25 56.6L17.2999 34.8C17.0999 34.2 17.4 33.6 17.9 33.3L24.4 30.4V18.8C24.4 16.8 26 15.2 28 15.2H29.7999V9.20001C29.7999 8.50001 30.3 8 31 8H41.2H43.5999H53.7999C54.4999 8 55 8.50001 55 9.20001V15.2H56.7999C58.7999 15.2 60.4 16.8 60.4 18.8V30.4L66.9 33.3C67.5 33.6 67.7 34.2 67.5 34.8L59.9 57.1L57.7999 57.6Z" fill="#8FC4E5"/>
<path d="M42.5 8.39999V1.20001" stroke="#8FC4E5" stroke-width="1.6451" stroke-miterlimit="3.8637" stroke-linecap="round"/>
<path d="M44.3 8.5C44.3 8.5 42.6 3.20001 42.5 3.20001C42.4 3.20001 40.6 8.5 40.6 8.5" stroke="#8FC4E5" stroke-miterlimit="3.8637" stroke-linecap="round"/>
<path d="M65.8827 18.7036L58.5361 22.7759L59.2633 24.0878L66.6099 20.0155L65.8827 18.7036Z" fill="#8FC4E5"/>
<path d="M32.7 8.60001V2.80002C32.7 1.80002 33.4999 1 34.4999 1C35.4999 1 36.2999 1.80002 36.2999 2.80002V8.60001H32.7Z" stroke="#8FC4E5" stroke-width="1.8574" stroke-miterlimit="3.8637"/>
<path d="M85.7 73.6V26.4" stroke="#8FC4E5" stroke-width="1.503" stroke-miterlimit="3.8637" stroke-linecap="round" stroke-linejoin="round"/>
<path fill-rule="evenodd" clip-rule="evenodd" d="M88.7 19.4C89 19.4 89 16.5 88.7 16.5H59.7C59.4 16.5 59.2 16.6 59.2 16.6V19.2C59.2 19.3 59.4 19.3 59.7 19.3H88.7V19.4Z" stroke="#8FC4E5" stroke-width="2.0739" stroke-miterlimit="3.8637" stroke-linecap="round" stroke-linejoin="round"/>
<path fill-rule="evenodd" clip-rule="evenodd" d="M88.7 19.5H83L84 24.2H87.1L88.7 19.5Z" stroke="#8FC4E5" stroke-width="1.503" stroke-miterlimit="3.8637" stroke-linecap="round" stroke-linejoin="round"/>
<path fill-rule="evenodd" clip-rule="evenodd" d="M86.9 26.2C87.1 26.2 87.3 26.1 87.3 26V24.2C87.3 24.1 87.1 24 86.9 24H84.4C84.2 24 84 24.1 84 24.2V26C84 26.1 84.2 26.2 84.4 26.2H86.9Z" stroke="#8FC4E5" stroke-width="1.503" stroke-miterlimit="3.8637" stroke-linecap="round" stroke-linejoin="round"/>
</svg>
