<svg width="104" height="84" viewBox="0 0 104 84" fill="none" xmlns="http://www.w3.org/2000/svg">
<path d="M2 55.4056C38.6 59.2056 32.3 60.2056 46.5 82.7056" stroke="#8FC4E5" stroke-width="2.5627" stroke-miterlimit="3.864" stroke-linecap="round"/>
<path d="M23.3999 73.8056V0.705611C23.8999 -0.594389 23.9 0.205611 24.2 0.705611V73.8056H23.3999Z" fill="#8FC4E5"/>
<path d="M20.8999 77.5056L22.8999 21.9056H24.7V77.5056H20.8999Z" fill="#8FC4E5"/>
<path d="M26.7 77.5056L24.7 21.9056H23V77.5056H26.7Z" fill="#8FC4E5"/>
<path d="M94 65.8057C96.8 67.7057 100.6 67.7057 103.4 65.8057L101.9 64.0056C99.9999 65.3056 97.4 65.3056 95.5 64.0056C92.7 62.1056 88.9 62.1056 86.1 64.0056C84.2 65.3056 81.6 65.3056 79.7 64.0056C76.9 62.1056 73.0999 62.1056 70.2999 64.0056C68.3999 65.3056 65.7999 65.3056 63.8999 64.0056C62.4999 63.0056 60.9 62.5056 59.2 62.5056C57.5 62.5056 55.9 63.0056 54.5 64.0056C52.6 65.3056 50 65.3056 48.1 64.0056C45.3 62.1056 41.5 62.1056 38.7 64.0056C38.1 64.4056 37.4 64.7056 36.6 64.9056V67.2056C37.9 67.0056 39.1 66.6057 40.2 65.8057C42.1 64.5057 44.7 64.5057 46.6 65.8057C49.4 67.7057 53.2 67.7057 56 65.8057C57.9 64.5057 60.4999 64.5057 62.3999 65.8057C65.1999 67.7057 68.9999 67.7057 71.7999 65.8057C73.6999 64.5057 76.3 64.5057 78.2 65.8057C81 67.7057 84.8 67.7057 87.6 65.8057C89.5 64.5057 92.1 64.5057 94 65.8057Z" fill="#8FC4E5"/>
<path d="M65.5 7.20563C65.2 15.1056 56.1 23.0056 41 26.9056C39 27.4056 36.8999 27.9056 34.7999 28.2056L33 26.6057C35.4 26.2057 37.8 25.8056 40.1 25.2056C54.4 21.5056 63.2999 14.2056 63.3999 6.90564L65.5 7.20563Z" fill="#8FC4E5"/>
<path d="M52 4.90564C53.3 11.0056 46.6999 17.3056 34.8999 20.4056C32.5999 21.0056 30.1999 21.4056 27.7999 21.7056L26.3999 20.3057C28.8999 20.0057 31.3 19.6056 33.7 19.0056C44.6 16.2056 51.0999 10.1056 49.7999 4.40564L52 4.90564Z" fill="#8FC4E5"/>
<path d="M18.7999 13.3057C21.5999 13.4057 24.5999 13.2056 27.2999 12.5056C34.6999 10.6056 39.4 6.10566 37.1 2.30566L39.2999 2.70563C41.0999 6.90563 36.8 11.5057 28.6 13.6057C25.9 14.3057 23.0999 14.7056 20.2999 14.7056L18.7999 13.3057Z" fill="#8FC4E5"/>
<path d="M102.9 13.9056C97.2999 26.4056 83 37.6056 58.5 43.9056C56.7 44.4056 55 45.0056 53.1 45.4056L51.5 43.9056C53.2 43.5056 54.9 43.1056 56.6 42.7056C79.7 36.7056 95.6999 25.4057 100.4 13.3057L102.9 13.9056Z" fill="#8FC4E5"/>
<path d="M84.1 11.6057C82.1 21.3057 70.1 30.6056 51 35.5056C49.1 36.0056 47.1999 36.4057 45.2999 36.8057L43.8999 35.4056C45.8999 35.0056 47.8999 34.6057 49.8999 34.1057C67.8999 29.5057 79.9 20.4057 81.5 11.1057L84.1 11.6057Z" fill="#8FC4E5"/>
</svg>
