<svg width="121" height="78" viewBox="0 0 121 78" fill="none" xmlns="http://www.w3.org/2000/svg">
<path d="M120 3.09998C119.6 2.99998 119.2 3 118.6 3C116.8 3 116 3.50001 115 4.20001C113.8 5.00001 112.5 5.89996 110 5.89996C107.5 5.89996 106.2 5.00001 105 4.20001C104 3.50001 103.2 3 101.4 3H101.2C99.4 3 98.6 3.50001 97.6 4.20001C96.4 5.00001 95.1 5.89996 92.6 5.89996C90.1 5.89996 88.8 5.00001 87.6 4.20001C86.6 3.50001 85.8 3 84 3C82.2 3 81.4 3.50001 80.4 4.20001C79.2 5.00001 77.9 5.89996 75.4 5.89996C72.9 5.89996 71.6 5.00001 70.4 4.20001C69.4 3.50001 68.6 3 66.8 3C65 3 64.2 3.50001 63.2 4.20001C62 5.00001 60.7 5.89996 58.2 5.89996C55.7 5.89996 54.4 5.00001 53.2 4.20001C52.2 3.50001 51.4 3 49.6 3C47.8 3 47 3.50001 46 4.20001C44.8 5.00001 43.5 5.89996 41 5.89996C38.4 5.89996 37 5.00001 35.9 4.20001C34.9 3.50001 34.1 3 32.3 3C30.5 3 29.7 3.50001 28.7 4.20001C27.5 5.00001 26.2 5.89996 23.7 5.89996C21.2 5.89996 19.9 5.00001 18.7 4.20001C17.7 3.50001 16.9 3 15.1 3C13.3 3 12.5 3.50001 11.5 4.20001C10.3 5.00001 9 5.89996 6.5 5.89996C4 5.89996 2.7 5.00001 1.5 4.20001C1 3.90001 0.5 3.49999 0 3.29999V0.299988C1.2 0.599988 2.09999 1.20001 2.89999 1.70001C3.89999 2.40001 4.7 2.89996 6.5 2.89996C8.3 2.89996 9.10001 2.40001 10.1 1.70001C11.3 0.900012 12.6 0 15.1 0C17.6 0 18.9 0.900012 20.1 1.70001C21.1 2.40001 21.9 2.89996 23.7 2.89996C25.5 2.89996 26.3 2.40001 27.3 1.70001C28.5 0.900012 29.8 0 32.3 0C34.8 0 36.1 0.900012 37.3 1.70001C38.3 2.40001 39.1 2.89996 40.9 2.89996C42.8 2.89996 43.6 2.40001 44.7 1.70001C45.9 0.900012 47.2 0 49.7 0C52.2 0 53.5 0.900012 54.7 1.70001C55.7 2.40001 56.5 2.89996 58.3 2.89996C60.1 2.89996 60.9 2.40001 61.9 1.70001C63.1 0.900012 64.4 0 66.9 0C69.4 0 70.7 0.900012 71.9 1.70001C72.9 2.40001 73.7 2.89996 75.5 2.89996C77.3 2.89996 78.1 2.40001 79.1 1.70001C80.3 0.900012 81.6 0 84.1 0C86.6 0 87.9 0.900012 89.1 1.70001C90.1 2.40001 90.9 2.89996 92.7 2.89996C94.5 2.89996 95.3 2.40001 96.3 1.70001C97.5 0.900012 98.8 0 101.3 0H101.5C104 0 105.3 0.900012 106.5 1.70001C107.5 2.40001 108.3 2.89996 110.1 2.89996C111.9 2.89996 112.7 2.40001 113.7 1.70001C114.9 0.900012 116.2 0 118.7 0C119.2 0 119.6 -2.44156e-05 120.1 0.0999756V3.09998H120Z" fill="#8FC4E5"/>
<path d="M105.5 55C103.3 56.2 101.3 57.2 99.7 58" stroke="#8FC4E5" stroke-width="1.6316" stroke-miterlimit="3.864"/>
<path d="M113.8 44.4L116.4 49.6" stroke="#8FC4E5" stroke-width="1.6316" stroke-miterlimit="3.864"/>
<path d="M102.6 49.9L105.5 55.7" stroke="#8FC4E5" stroke-width="1.6316" stroke-miterlimit="3.864"/>
<path d="M97.4 52.6L100.4 58.4" stroke="#8FC4E5" stroke-width="1.6316" stroke-miterlimit="3.864"/>
<path d="M86.2 61.8C87.2 61.3 87.4 61.3 88.2 60.8" stroke="#8FC4E5" stroke-width="1.6316" stroke-miterlimit="3.864" stroke-linecap="round"/>
<path d="M90.5 56.1L93.5 61.9" stroke="#8FC4E5" stroke-width="1.6316" stroke-miterlimit="3.864"/>
<path d="M102.9 49.6C100.7 50.8 98.7001 51.8 97.1001 52.6" stroke="#8FC4E5" stroke-width="1.6316" stroke-miterlimit="3.864"/>
<path d="M83.4 64.3L84.4 63.8L85.4 63.3L85.6 62.5L85.8 61.7L85.1 61.4L84.3 61.1L83.3 61.6L82.2 62.1L82 62.9L81.8 63.7L82.6 64L83.4 64.3Z" stroke="#8FC4E5" stroke-width="1.6316" stroke-miterlimit="3.864"/>
<path d="M110.4 45.5L105.9 47.8L101.4 50.1L96.8 48.2L92.2 46.3L90.9999 46.9L89.8 47.5L93.9999 49.5L98.2 51.5L93.7 53.8L89.2 56.1L86.3 58.7L84.2 60.9L85.8 61.6L85.4 63.3L88.4 62.9L92.2 62.1L96.7 59.8L101.2 57.5L100.4 62.1L99.6 66.7L100.8 66.1L102 65.5L103.2 60.7L104.4 55.9L108.9 53.6L113.4 51.3L114.2 50.9L115 50.5C115.1 50.5 115.2 50.4 115.3 50.3C115.4 50.2 115.5 50.2 115.6 50.1C116.9 49.2 117.6 48.3 118 47.5C118.4 46.7 118.3 45.9 118 45.3C117.7 44.7 117.1 44.2 116.3 44C115.4 43.8 114.3 43.8 112.8 44.4C112.7 44.4 112.6 44.5 112.5 44.5C112.4 44.5 112.3 44.6 112.2 44.6L111.4 45L110.4 45.5Z" stroke="#8FC4E5" stroke-width="1.6316" stroke-miterlimit="3.864"/>
<path d="M57.9 76.2L80.4 64.6" stroke="#8FC4E5" stroke-width="1.893" stroke-miterlimit="3.8637" stroke-dasharray="8 8"/>
<path d="M57.6 73.6L25 10.9" stroke="#8FC4E5" stroke-width="1.8931" stroke-miterlimit="3.8637" stroke-dasharray="8 8"/>
<path d="M0.900024 21.9L25.6 9.20001" stroke="#8FC4E5" stroke-width="1.893" stroke-miterlimit="3.8637" stroke-dasharray="8 8"/>
</svg>
