<svg width="135" height="153" viewBox="0 0 135 153" fill="none" xmlns="http://www.w3.org/2000/svg">
<path d="M72.3 83.4C72.2 81.4 72.5 84.4 72.1 76.2" stroke="#8FC4E5" stroke-width="1.3156" stroke-miterlimit="3.8637"/>
<path d="M71.3001 93.7C71.2001 89.5 73.0001 90.2 72.3001 85.6" stroke="#8FC4E5" stroke-width="1.6246" stroke-miterlimit="3.8637"/>
<path d="M67.3 33.4C67.7 35.4 66.8001 33.9 68.4001 42.1" stroke="#8FC4E5" stroke-width="1.3156" stroke-miterlimit="3.8637"/>
<path fill-rule="evenodd" clip-rule="evenodd" d="M60.3 18.6C60.3 17.8 61 17.1 61.8 17.1H73.1001C73.9001 17.1 74.6001 17.8 74.6001 18.6L75.7001 21.2C75.7001 22 59.3 21.9 59.3 21.1L60.3 18.6Z" stroke="#8FC4E5" stroke-width="0.9773" stroke-miterlimit="3.8637"/>
<path fill-rule="evenodd" clip-rule="evenodd" d="M67.4 21.6V12.5H62.5L54.9 21.6H67.4Z" stroke="#8FC4E5" stroke-width="1.0616" stroke-miterlimit="3.8637"/>
<path fill-rule="evenodd" clip-rule="evenodd" d="M67.4 21.6V12.5H72.4L80 21.6H67.4Z" stroke="#8FC4E5" stroke-width="1.0616" stroke-miterlimit="3.8637"/>
<path fill-rule="evenodd" clip-rule="evenodd" d="M67.9 3.89994C67.5 3.19994 67.2 3.19994 66.9 3.89994V15.6H67.9V3.89994Z" fill="#8FC4E5"/>
<path fill-rule="evenodd" clip-rule="evenodd" d="M49.4 24.7C49.4 23 50.8 21.6 52.5 21.6H82.3C84 21.6 85.4 23 85.4 24.7L84 30.3C84 32 81.4 33.4 79.7 33.4H56.3C54.6 33.4 51.7 32 51.7 30.3L49.4 24.7Z" stroke="#8FC4E5" stroke-width="1.4657" stroke-miterlimit="3.8637"/>
<path d="M84.9 25H50" stroke="#8FC4E5" stroke-width="1.2464" stroke-miterlimit="3.8637"/>
<path d="M74.4 14.9H60.9" stroke="#8FC4E5" stroke-width="0.6295" stroke-miterlimit="3.8637" stroke-linecap="round"/>
<path d="M66.5 13.9C66.4 13.8 66.4 13.8 66.3 13.8H56.7001C56.6001 13.8 56.5001 13.9 56.4001 14L54.8 19.6C54.8 19.7 54.8 19.8 54.8 19.9C54.9 20 54.9 20 55 20H64.6001C64.7001 20 64.8001 19.9 64.9001 19.8L66.5 14.2C66.6 14.1 66.6 14 66.5 13.9ZM57.9001 19.4H55.4001L55.8 18.1H58.3L57.9001 19.4ZM56 17.5L56.4001 16.2H58.3C58.5 16.2 58.6001 16.1 58.6001 15.9C58.6001 15.7 58.5 15.6 58.3 15.6H56.6001L56.9001 14.4H59.4001L58.5 17.5H56ZM58.6001 19.4L59 18.1H61C61.2 18.1 61.3 18 61.3 17.8C61.3 17.6 61.2 17.5 61 17.5H59.2001L60.1001 14.4H62.7001L62.4001 15.6H60.4001C60.2001 15.6 60.1001 15.7 60.1001 15.9C60.1001 16.1 60.2001 16.2 60.4001 16.2H62.3L61.4001 19.4H58.6001ZM65 17.5H62.9001C62.7001 17.5 62.6001 17.6 62.6001 17.8C62.6001 18 62.7001 18.1 62.9001 18.1H64.9001L64.5 19.4H61.8L62.7001 16.2H65.4001L65 17.5ZM65.5 15.6H62.8L63.1001 14.4H65.8L65.5 15.6Z" fill="#8FC4E5"/>
<path d="M63.1 6H62.4V10H63.1V6Z" fill="#8FC4E5"/>
<path d="M64.5 6H61.8V6.59998H64.5V6Z" fill="#8FC4E5"/>
<path fill-rule="evenodd" clip-rule="evenodd" d="M60.5 6.19995C60.5 5.69995 60.9 5.39996 61.4 5.39996C61.9 5.39996 62.2 5.79995 62.2 6.19995C62.2 6.59995 61.8 7 61.4 7C61 7 60.5 6.69995 60.5 6.19995Z" fill="#8FC4E5"/>
<path fill-rule="evenodd" clip-rule="evenodd" d="M63.3 6.19995C63.3 5.69995 63.7001 5.39996 64.1001 5.39996C64.6001 5.39996 65 5.79995 65 6.19995C65 6.59995 64.6001 7 64.1001 7C63.6001 7.1 63.3 6.69995 63.3 6.19995Z" fill="#8FC4E5"/>
<path d="M74.4001 10H60.8" stroke="#8FC4E5" stroke-width="1.0526" stroke-miterlimit="3.8637" stroke-linecap="round"/>
<path d="M70.7 9.5V7C70.7 6.6 70.9999 6.19995 71.4999 6.19995C71.9999 6.19995 72.2999 6.5 72.2999 7V9.5H70.7Z" stroke="#8FC4E5" stroke-width="0.8085" stroke-miterlimit="3.8637"/>
<path d="M67.4 0C66.2 0 65 0.5 64.2 1.5C64.1 1.7 64.1 1.89998 64.3 2.09998C64.4 2.19998 64.5 2.19995 64.6 2.19995C64.7 2.19995 64.8 2.09998 64.9 2.09998C65.5 1.29998 66.5 0.899963 67.4 0.899963C68.3 0.899963 69.3 1.29998 69.9 2.09998C70 2.19998 70.1 2.19995 70.2 2.19995C70.3 2.19995 70.4 2.19998 70.5 2.09998C70.7 1.99998 70.7 1.7 70.6 1.5C69.8 0.5 68.7 0 67.4 0Z" fill="#8FC4E5"/>
<path d="M67.4 1.59998C66.7 1.59998 66 1.9 65.5 2.5C65.4 2.7 65.4 2.89998 65.6 3.09998C65.7 3.19998 65.8 3.19995 65.9 3.19995C66 3.19995 66.1 3.09998 66.2 3.09998C66.5 2.69998 67 2.5 67.5 2.5C68 2.5 68.5 2.69998 68.8 3.09998C68.9 3.19998 69 3.19995 69.1 3.19995C69.2 3.19995 69.3 3.19998 69.4 3.09998C69.6 2.99998 69.6 2.7 69.5 2.5C68.9 1.9 68.2 1.59998 67.4 1.59998Z" fill="#8FC4E5"/>
<path d="M68.6 136.7C68.8 133.2 70.5 135.2 71.2 130.5" stroke="#8FC4E5" stroke-width="1.6246" stroke-miterlimit="3.8637"/>
<path d="M67.9 136.8V136.4H69.2V136.8C69.6 136.9 70 137.1 70.3 137.4C70.8 137.9 71.1 138.5 71.1 139.2V142.1C71.1 142.8 70.8 143.4 70.3 143.9C70 144.2 69.6 144.4 69.2 144.5V145.7H67.9V144.5C67.4 144.4 67 144.1 66.7 143.8C66.3 143.4 66 142.7 66 142.1V139.2C66 138.5 66.3 137.9 66.8 137.4C67.1 137.2 67.5 136.9 67.9 136.8ZM69.2 143.1C69.3 143 69.4 143 69.4 142.9C69.6 142.7 69.8 142.4 69.8 142.1V139.2C69.8 138.9 69.7 138.6 69.5 138.4C69.4 138.3 69.3 138.2 69.2 138.2V139.3H67.9V138.2C67.8 138.3 67.7 138.3 67.7 138.4C67.5 138.6 67.3 138.9 67.3 139.2V142.1C67.3 142.5 67.5 142.9 67.9 143.1V142.7H69.2V143.1Z" fill="#8FC4E5"/>
<path fill-rule="evenodd" clip-rule="evenodd" d="M62.8 151.8L65.7001 147H71.4001L74.2001 151.8H62.8Z" stroke="#8FC4E5" stroke-width="1.6246" stroke-miterlimit="3.8637"/>
<path d="M68.4999 146.9C68.9418 146.9 69.2999 146.542 69.2999 146.1C69.2999 145.658 68.9418 145.3 68.4999 145.3C68.0581 145.3 67.7 145.658 67.7 146.1C67.7 146.542 68.0581 146.9 68.4999 146.9Z" stroke="#8FC4E5" stroke-width="1.1201" stroke-miterlimit="3.8637"/>
<path fill-rule="evenodd" clip-rule="evenodd" d="M70.9999 43.6999C70.7999 44.0999 70.3999 44.2999 70.0999 44.1999C69.7999 44.0999 69.7 43.7 69.9 43.3C70.1 42.9 70.4999 42.7 70.7999 42.8C70.9999 42.9 71.1999 43.2999 70.9999 43.6999Z" stroke="#8FC4E5" stroke-width="0.4743" stroke-miterlimit="3.8637"/>
<path d="M71.0999 43.3L70.2 43" stroke="#8FC4E5" stroke-width="0.4743" stroke-miterlimit="3.8637"/>
<path fill-rule="evenodd" clip-rule="evenodd" d="M64.2 49.1999C63.8 46.4999 65.7 44.0999 68.3 43.6999C71 43.2999 73.4 45.2 73.8 47.8C74.2 50.4 72.3 52.9 69.7 53.3C67 53.7 64.6 51.7999 64.2 49.1999Z" stroke="#8FC4E5" stroke-width="1.1304" stroke-miterlimit="3.8637"/>
<path d="M63.6 49.3L74.4 47.7" stroke="#8FC4E5" stroke-width="0.5652" stroke-miterlimit="3.8637" stroke-linecap="round"/>
<path fill-rule="evenodd" clip-rule="evenodd" d="M68 41.3L68.3 43.3L67.6 43.4L68 41.3Z" stroke="#8FC4E5" stroke-width="0.4701" stroke-miterlimit="1" stroke-linecap="square" stroke-linejoin="round"/>
<path fill-rule="evenodd" clip-rule="evenodd" d="M68 41.3L68.3 43.3L69 43.2L68 41.3Z" stroke="#8FC4E5" stroke-width="0.4701" stroke-miterlimit="1" stroke-linecap="square" stroke-linejoin="round"/>
<path fill-rule="evenodd" clip-rule="evenodd" d="M69.9 55.1L69.7 53.6L69 53.7L69.9 55.1Z" stroke="#8FC4E5" stroke-width="0.4096" stroke-miterlimit="1" stroke-linecap="square" stroke-linejoin="round"/>
<path fill-rule="evenodd" clip-rule="evenodd" d="M69.8999 55.1L69.7 53.6L70.3999 53.5L69.8999 55.1Z" stroke="#8FC4E5" stroke-width="0.4096" stroke-miterlimit="1" stroke-linecap="square" stroke-linejoin="round"/>
<path fill-rule="evenodd" clip-rule="evenodd" d="M70.7001 130.6C70.5001 130.6 70.3 130.4 70.3 130.2V129.9C70.3 129.7 70.5001 129.5 70.7001 129.5H71.7001C71.9001 129.5 72.1001 129.7 72.1001 129.9V130.2C72.1001 130.4 71.9001 130.6 71.7001 130.6H70.7001Z" stroke="#8FC4E5" stroke-width="0.3172" stroke-miterlimit="3.8637"/>
<path fill-rule="evenodd" clip-rule="evenodd" d="M70.6 109.6C70.6 109.5 70.7 109.4 70.8 109.4H71.7C71.8 109.4 71.9 109.5 71.9 109.6V124.6C71.9 124.7 71.8 124.8 71.7 124.8H70.8C70.7 124.8 70.6 124.7 70.6 124.6V109.6Z" fill="#8FC4E5"/>
<path d="M70.7 125.5H69.5V128.4H70.7V125.5Z" fill="#8FC4E5"/>
<path d="M66.8 111C66.9 110.5 67.4001 110.1 67.9001 110.1C68.4001 110.1 68.9 110.5 69 111H66.8Z" stroke="#8FC4E5" stroke-width="0.2702" stroke-miterlimit="3.8637"/>
<path fill-rule="evenodd" clip-rule="evenodd" d="M66.6 111.2C66.6 111.1 66.8 111 67 111H68.9C69.1 111 69.3 111.1 69.3 111.2V126.3C69.3 126.4 69.1 126.5 68.9 126.5C68.3 126.7 67.6 126.7 67 126.5C66.8 126.5 66.6 126.4 66.6 126.3V111.2Z" fill="#8FC4E5"/>
<path d="M70.7 125.7H67.4V126.7H70.7V125.7Z" fill="#8FC4E5"/>
<path d="M71.1 114.2H65.9V115.2H71.1V114.2Z" fill="#8FC4E5"/>
<path d="M71.4 129.7H69.9V130H71.4V129.7Z" fill="#8FC4E5"/>
<path d="M70.4001 128.3H69.8V129.8H70.4001V128.3Z" stroke="#8FC4E5" stroke-width="0.1723" stroke-miterlimit="3.8637"/>
<path d="M69.4999 114.3H66.2V115H69.4999V114.3Z" stroke="#8FC4E5" stroke-width="0.1723" stroke-miterlimit="3.8637"/>
<path d="M71.4 123.6H69.9V126.2H71.4V123.6Z" fill="#8FC4E5"/>
<path d="M72.8999 125.5H71.7V128.4H72.8999V125.5Z" fill="#8FC4E5"/>
<path d="M75.6 111C75.5 110.5 75 110.1 74.5 110.1C74 110.1 73.5 110.5 73.4 111H75.6Z" stroke="#8FC4E5" stroke-width="0.2702" stroke-miterlimit="3.8637"/>
<path fill-rule="evenodd" clip-rule="evenodd" d="M75.7999 111.2C75.7999 111.1 75.5999 111 75.3999 111H73.5999C73.3999 111 73.2 111.1 73.2 111.2V126.3C73.2 126.4 73.3999 126.5 73.5999 126.5C74.1999 126.7 74.8999 126.7 75.4999 126.5C75.6999 126.5 75.8999 126.4 75.8999 126.3V111.2H75.7999Z" fill="#8FC4E5"/>
<path d="M74.8 125.7H71.5V126.7H74.8V125.7Z" fill="#8FC4E5"/>
<path d="M76.3 114.2H71.1V115.2H76.3V114.2Z" fill="#8FC4E5"/>
<path d="M72.4 129.7H70.9V130H72.4V129.7Z" fill="#8FC4E5"/>
<path d="M72.6 128.3H72V129.8H72.6V128.3Z" stroke="#8FC4E5" stroke-width="0.1723" stroke-miterlimit="3.8637"/>
<path d="M76.2 114.3H72.9V115H76.2V114.3Z" stroke="#8FC4E5" stroke-width="0.1723" stroke-miterlimit="3.8637"/>
<path d="M72.6 123.6H71.1V126.2H72.6V123.6Z" fill="#8FC4E5"/>
<path d="M70.8 62C70.6 60 71.1 63 70.1 54.8" stroke="#8FC4E5" stroke-width="1.3156" stroke-miterlimit="3.8637"/>
<path d="M68.5 65.4L69.2 74.2" stroke="#8FC4E5" stroke-width="0.3914" stroke-miterlimit="3.8637"/>
<path d="M73.5 64.9L74.3 73.8" stroke="#8FC4E5" stroke-width="0.3914" stroke-miterlimit="3.8637"/>
<path fill-rule="evenodd" clip-rule="evenodd" d="M69.2 66.1C69.2 66 69.2999 65.9 69.3999 65.9L70.2 65.8C70.3 65.8 70.3999 65.9 70.3999 66L70.7999 70.7C70.7999 70.8 70.6999 70.9 70.5999 70.9L69.7999 71C69.6999 71 69.5999 70.9 69.5999 70.8L69.2 66.1Z" fill="#8FC4E5"/>
<path fill-rule="evenodd" clip-rule="evenodd" d="M68.5 65.4L71 65.2L70.7 62.4L68.5 65.4Z" stroke="#8FC4E5" stroke-width="0.5055" stroke-miterlimit="1" stroke-linecap="square" stroke-linejoin="round"/>
<path fill-rule="evenodd" clip-rule="evenodd" d="M73.5 64.9L71.1001 65.2L70.8 62.4L73.5 64.9Z" stroke="#8FC4E5" stroke-width="0.5055" stroke-miterlimit="1" stroke-linecap="square" stroke-linejoin="round"/>
<path fill-rule="evenodd" clip-rule="evenodd" d="M69.3 74.3L71.8 74.1L72 76.8L69.3 74.3Z" stroke="#8FC4E5" stroke-width="0.5055" stroke-miterlimit="1" stroke-linecap="square" stroke-linejoin="round"/>
<path fill-rule="evenodd" clip-rule="evenodd" d="M74.3 73.9L71.9 74.1L72.1 76.8L74.3 73.9Z" stroke="#8FC4E5" stroke-width="0.5055" stroke-miterlimit="1" stroke-linecap="square" stroke-linejoin="round"/>
<path d="M71.8 74L71 65.2" stroke="#8FC4E5" stroke-width="0.3851" stroke-miterlimit="3.8637"/>
<path fill-rule="evenodd" clip-rule="evenodd" d="M72.3 67.5C72.3 67.4 72.4 67.3 72.5 67.3H72.6001C72.7001 67.3 72.8 67.4 72.8 67.5L73.1001 70.8C73.1001 70.9 73.0001 71 72.9001 71H72.8C72.7 71 72.6001 70.9 72.6001 70.8L72.3 67.5Z" fill="#8FC4E5"/>
<path fill-rule="evenodd" clip-rule="evenodd" d="M69.6 65.4C69.6 65.3 69.7 65.2 69.8 65.2H69.9C70 65.2 70.1 65.3 70.1 65.4L70.4 68.6C70.4 68.7 70.3 68.8 70.2 68.8H70.1C70 68.8 69.9 68.7 69.9 68.6L69.6 65.4Z" fill="#8FC4E5"/>
<path fill-rule="evenodd" clip-rule="evenodd" d="M69.8 70.8C69.7 70.7 69.7 70.6 69.8 70.6C69.9 70.6 70 70.6 70 70.7L71.8 73.1C71.9 73.2 71.9 73.3 71.8 73.3C71.7 73.3 71.6 73.3 71.6 73.2L69.8 70.8Z" fill="#8FC4E5"/>
<path fill-rule="evenodd" clip-rule="evenodd" d="M70.8 66.5C70.8 66.2 71.0001 66 71.2001 66H71.3C71.6 66 71.8 66.2 71.8 66.4L72.3 72.6C72.3 72.9 72.1001 73.1 71.9001 73.1H71.8C71.5 73.1 71.3 72.9 71.3 72.7L70.8 66.5Z" stroke="#8FC4E5" stroke-width="0.3403" stroke-miterlimit="3.8637"/>
<path fill-rule="evenodd" clip-rule="evenodd" d="M72.7001 71.9C72.7001 71.9 72.7001 71.9 72.7001 72V72.3C72.7001 72.4 72.7001 72.5 72.7001 72.5L72.3 72.9C72.3 72.9 72.3 72.9 72.3 72.8V72.5C72.3 72.4 72.3 72.3 72.3 72.3L72.7001 71.9Z" fill="#8FC4E5"/>
<path fill-rule="evenodd" clip-rule="evenodd" d="M71.8 66.5C71.8 66.2 72.0001 66 72.2001 66H72.5C72.8 66 73 66.2 73 66.4L73.1001 67.4C73.1001 67.7 72.9001 67.9 72.7001 67.9H72.4001C72.1001 67.9 71.9001 67.7 71.9001 67.5L71.8 66.5Z" stroke="#8FC4E5" stroke-width="0.3403" stroke-miterlimit="3.8637"/>
<path fill-rule="evenodd" clip-rule="evenodd" d="M72.6 69.1C72.6 69 72.6 68.9 72.7 68.9C72.8 68.9 72.8 69 72.8 69.1L73.1 72.1C73.1 72.2 73.1 72.3 73 72.3C72.9 72.3 72.9 72.2 72.9 72.1L72.6 69.1Z" fill="#8FC4E5"/>
<path fill-rule="evenodd" clip-rule="evenodd" d="M70.2 67.1C70.2 67.1 70.1 67 70.1 66.9C70.1 66.8 70.1 66.7 70.1 66.7L71.6 66.6C71.6 66.6 71.7 66.7 71.7 66.8C71.7 66.9 71.7 67 71.7 67L70.2 67.1Z" fill="#8FC4E5"/>
<path fill-rule="evenodd" clip-rule="evenodd" d="M72.1 65.1L72.3 65C72.4 65 72.4 65 72.4 65L72.5 65.9C72.5 65.9 72.5 66 72.4 66H72.3C72.2 66 72.2 66 72.2 66L72.1 65.1Z" fill="#8FC4E5"/>
<path d="M69 69.8L73.8 69.4" stroke="#8FC4E5" stroke-width="0.2893" stroke-miterlimit="3.8637"/>
<path d="M70.6 65.1C70.6 64.7 71 64.4 71.4 64.4C71.8 64.4 72.2 64.6 72.3 65L70.6 65.1Z" stroke="#8FC4E5" stroke-width="0.1993" stroke-miterlimit="3.8637"/>
<path d="M70.1735 64.5968L69.6754 64.6404L69.7453 65.4374L70.2434 65.3937L70.1735 64.5968Z" stroke="#8FC4E5" stroke-width="0.2043" stroke-miterlimit="3.8637"/>
<path d="M71.1 69.1C71.3 69.1 71.5 69.3 71.5 69.5C71.5 69.7 71.4 69.9 71.2 70L71.1 69.1Z" stroke="#8FC4E5" stroke-width="0.1124" stroke-miterlimit="3.8637"/>
<path d="M72.6725 71.9571L71.6763 72.0442L71.7285 72.6419L72.7247 72.5548L72.6725 71.9571Z" stroke="#8FC4E5" stroke-width="0.1702" stroke-miterlimit="3.8637"/>
<path d="M71.1688 61.7635L70.1726 61.8506L70.2249 62.4483L71.2211 62.3612L71.1688 61.7635Z" stroke="#8FC4E5" stroke-width="0.1702" stroke-miterlimit="3.8637"/>
<path d="M72.5714 76.7569L71.5752 76.8439L71.6274 77.4416L72.6236 77.3545L72.5714 76.7569Z" stroke="#8FC4E5" stroke-width="0.1702" stroke-miterlimit="3.8637"/>
<path fill-rule="evenodd" clip-rule="evenodd" d="M68.9 94.2H71.2V92.5L68.9 94.2Z" stroke="#8FC4E5" stroke-width="0.7831" stroke-miterlimit="1" stroke-linecap="square" stroke-linejoin="round"/>
<path fill-rule="evenodd" clip-rule="evenodd" d="M73.7001 94.2H71.3V92.5L73.7001 94.2Z" stroke="#8FC4E5" stroke-width="0.7831" stroke-miterlimit="1" stroke-linecap="square" stroke-linejoin="round"/>
<path fill-rule="evenodd" clip-rule="evenodd" d="M68.9 105.9H71.2V107.6L68.9 105.9Z" stroke="#8FC4E5" stroke-width="0.7831" stroke-miterlimit="1" stroke-linecap="square" stroke-linejoin="round"/>
<path fill-rule="evenodd" clip-rule="evenodd" d="M73.7001 105.9H71.3V107.6L73.7001 105.9Z" stroke="#8FC4E5" stroke-width="0.7831" stroke-miterlimit="1" stroke-linecap="square" stroke-linejoin="round"/>
<path d="M69.3 94.6V105.7" stroke="#8FC4E5" stroke-width="0.3915" stroke-miterlimit="3.8637"/>
<path d="M73.3 94.5V105.7" stroke="#8FC4E5" stroke-width="0.3915" stroke-miterlimit="3.8637"/>
<path fill-rule="evenodd" clip-rule="evenodd" d="M70.9 96.3C70.9 96.1 71 95.9 71.2 95.9H71.4C71.6 95.9 71.7 96.1 71.7 96.3V98C71.7 98.2 71.6 98.4 71.4 98.4H71.2C71 98.4 70.9 98.2 70.9 98V96.3Z" fill="#8FC4E5" stroke="#8FC4E5" stroke-width="0.1082" stroke-miterlimit="3.8637"/>
<path fill-rule="evenodd" clip-rule="evenodd" d="M69.8 99.2C69.8 98.6 70.3 98 71 98H71.7001C72.3001 98 72.9001 98.5 72.9001 99.2V104.5C72.9001 105.1 72.4001 105.7 71.7001 105.7H71C70.4 105.7 69.8 105.2 69.8 104.5V99.2Z" fill="#8FC4E5" stroke="#8FC4E5" stroke-width="0.3915" stroke-miterlimit="3.8637"/>
<path fill-rule="evenodd" clip-rule="evenodd" d="M72.2 95.1C72.5 95.1 72.7 95.3 72.7 95.6V95.9C72.7 96.2 72.5 96.4 72.2 96.4H70.2C69.9 96.4 69.7 96.2 69.7 95.9V95.6C69.7 95.3 69.9 95.1 70.2 95.1H72.2Z" stroke="#8FC4E5" stroke-width="0.1527" stroke-miterlimit="3.8637"/>
<path fill-rule="evenodd" clip-rule="evenodd" d="M73.0999 100.8C73.3999 100.8 73.5999 101 73.5999 101.2C73.5999 101.4 73.3999 101.6 73.0999 101.6H69.2C68.9 101.6 68.7 101.4 68.7 101.2C68.7 101 68.9 100.8 69.2 100.8H73.0999Z" stroke="#8FC4E5" stroke-width="0.1527" stroke-miterlimit="3.8637"/>
<path d="M73.5 103.8H73.1V104.7H73.5V103.8Z" stroke="#8FC4E5" stroke-width="0.1965" stroke-miterlimit="3.8637"/>
<path d="M69.5 103.8H69.1V104.7H69.5V103.8Z" stroke="#8FC4E5" stroke-width="0.1965" stroke-miterlimit="3.8637"/>
<path d="M72.4 97.6H72V98.5H72.4V97.6Z" fill="#8FC4E5" stroke="#8FC4E5" stroke-width="0.1965" stroke-miterlimit="3.8637"/>
<path d="M71.2001 111.6C71.2001 109.6 71.1 115.2 71.3 106.9" stroke="#8FC4E5" stroke-width="1.3156" stroke-miterlimit="3.8637"/>
<path d="M134.5 29C134.1 28.9 133.6 28.9 133 28.9C131 28.9 130.1 29.3 129 29.9C127.7 30.5 126.2 31.3 123.4 31.3C120.6 31.3 119.1 30.6 117.8 29.9C116.7 29.3 115.7 28.9 113.8 28.9H113.6C111.6 28.9 110.7 29.3 109.6 29.9C108.3 30.5 106.8 31.3 104 31.3C101.2 31.3 99.7 30.6 98.4 29.9C97.3 29.3 96.3 28.9 94.4 28.9C92.4 28.9 91.5 29.3 90.4 29.9C89.1 30.5 87.6 31.3 84.8 31.3C82 31.3 80.5 30.6 79.2 29.9C78.1 29.3 77.1 28.9 75.2 28.9C73.2 28.9 72.3 29.3 71.1 29.9C69.8 30.5 68.3 31.3 65.5 31.3C62.7 31.3 61.2 30.6 59.9 29.9C58.7 29.3 57.8 28.9 55.8 28.9C53.8 28.9 52.9 29.3 51.7 29.9C50.4 30.5 48.9 31.3 46.1 31.3C43.1 31.3 41.7 30.6 40.4 29.9C39.3 29.3 38.3 28.9 36.3 28.9C34.3 28.9 33.4 29.3 32.2 29.9C30.9 30.5 29.4 31.3 26.6 31.3C23.8 31.3 22.3 30.6 21 29.9C19.9 29.3 18.9 28.9 16.9 28.9C14.9 28.9 14 29.3 12.9 29.9C11.6 30.5 10.1 31.3 7.3 31.3C4.5 31.3 3 30.6 1.7 29.9C1.1 29.6 0.6 29.4 0 29.2V26.7C1.4 27 2.3 27.4 3.2 27.9C4.3 28.5 5.3 28.9 7.2 28.9C9.1 28.9 10.1 28.5 11.2 27.9C12.5 27.3 14 26.5 16.8 26.5C19.6 26.5 21.1 27.2 22.4 27.9C23.5 28.5 24.5 28.9 26.5 28.9C28.5 28.9 29.4 28.5 30.6 27.9C31.9 27.3 33.4 26.5 36.2 26.5C39 26.5 40.5 27.2 41.8 27.9C43 28.5 43.9 28.9 45.9 28.9C48 28.9 48.9 28.5 50.1 27.9C51.4 27.3 52.9 26.5 55.7 26.5C58.5 26.5 60 27.2 61.3 27.9C62.4 28.5 63.4 28.9 65.4 28.9C67.4 28.9 68.3 28.5 69.5 27.9C70.8 27.3 72.3 26.5 75.1 26.5C77.9 26.5 79.4 27.2 80.7 27.9C81.8 28.5 82.8 28.9 84.7 28.9C86.7 28.9 87.6 28.5 88.7 27.9C90 27.3 91.5 26.5 94.3 26.5C97.1 26.5 98.6 27.2 99.9 27.9C101 28.5 102 28.9 103.9 28.9C105.9 28.9 106.8 28.5 107.9 27.9C109.2 27.3 110.7 26.5 113.5 26.5H113.7C116.5 26.5 118 27.2 119.3 27.9C120.4 28.5 121.4 28.9 123.3 28.9C125.3 28.9 126.2 28.5 127.3 27.9C128.6 27.3 130.1 26.5 132.9 26.5C133.5 26.5 134 26.5 134.4 26.6V29H134.5Z" fill="#8FC4E5"/>
<path d="M72.6 83.3C72 84.1 70.9 84.5 69.9 84.2C68.9 83.9 68.2 83.1 68 82.1" stroke="#8FC4E5" stroke-width="1.2062" stroke-miterlimit="3.8637"/>
<path d="M77 84.6999C76.9 83.6999 76.1 82.9 75.1 82.6C74.1 82.3 73 82.7 72.4 83.5" stroke="#8FC4E5" stroke-width="1.2062" stroke-miterlimit="3.8637"/>
<path d="M72.1 86C72.7 85.2 73.8 84.8 74.8 85.1C75.8 85.4 76.5 86.1999 76.7 87.1999" stroke="#8FC4E5" stroke-width="1.2062" stroke-miterlimit="3.8637"/>
<path d="M67.7 84.6C67.8 85.6 68.5999 86.4 69.5999 86.7C70.5999 87 71.6999 86.6 72.2999 85.8" stroke="#8FC4E5" stroke-width="1.2062" stroke-miterlimit="3.8637"/>
</svg>
