<svg width="93" height="66" viewBox="0 0 93 66" fill="none" xmlns="http://www.w3.org/2000/svg">
<path d="M78.2 41.35L79 46.85" stroke="#8FC4E5" stroke-width="1.1371" stroke-miterlimit="3.8637" stroke-linecap="round"/>
<path d="M79.3001 51.65L79.6 53.55L78.7 53.65L78.4001 56.05C76.2001 57.25 74.9001 59.65 75.3001 62.25V62.35L87.2 60.45V60.35C86.8 57.75 84.8001 55.85 82.3001 55.35L81.3001 53.15L80.4001 53.25L80.1 51.35H80.4001L79.7 46.85L78.4001 47.05L79.1 51.55L79.3001 51.65Z" stroke="#8FC4E5" stroke-width="2.2741" stroke-miterlimit="3.8637"/>
<path d="M79.3001 51.65L79.6 53.55L78.7 53.65L78.4001 56.05C76.2001 57.25 74.9001 59.65 75.3001 62.25V62.35L87.2 60.45V60.35C86.8 57.75 84.8001 55.85 82.3001 55.35L81.3001 53.15L80.4001 53.25L80.1 51.35H80.4001L79.7 46.85L78.4001 47.05L79.1 51.55L79.3001 51.65Z" fill="#8FC4E5"/>
<path d="M82.4 55.05L78.2 55.75" stroke="#8FC4E5" stroke-width="0.803" stroke-miterlimit="3.8637"/>
<path d="M86.4 57.75L81.4 58.55" stroke="#8FC4E5" stroke-width="0.803" stroke-miterlimit="3.8637"/>
<path d="M92.8 65.65C90.1 65.55 88.6 64.65 87.3 63.85C86.1 63.15 85.1 62.55 83 62.55C80.9 62.55 79.9 63.15 78.7 63.85C77.3 64.65 75.8 65.65 72.8 65.65C69.8 65.65 68.3 64.75 66.9 63.85C65.7 63.15 64.7 62.55 62.6 62.55C60.5 62.55 59.5 63.15 58.3 63.85C56.9 64.65 55.4 65.65 52.4 65.65C49.3 65.65 47.7 64.75 46.3 63.85C45.1 63.15 44.1 62.55 42 62.55C39.9 62.55 38.9 63.15 37.7 63.85C36.3 64.65 34.8 65.65 31.8 65.65C28.8 65.65 27.3 64.75 25.9 63.85C24.7 63.15 23.7 62.55 21.6 62.55C19.5 62.55 18.5 63.15 17.3 63.85C15.9 64.65 14.4 65.65 11.4 65.65C8.40002 65.65 6.9 64.75 5.5 63.85C4.3 63.15 3.30001 62.55 1.20001 62.55C0.700012 62.55 0.3 62.55 0 62.65V59.55C0.4 59.55 0.800012 59.45 1.20001 59.45C4.20001 59.45 5.69998 60.35 7.09998 61.25C8.29998 61.95 9.30002 62.55 11.4 62.55C13.5 62.55 14.5 61.95 15.7 61.25C17.1 60.45 18.6 59.45 21.6 59.45C24.6 59.45 26.1 60.35 27.5 61.25C28.7 61.95 29.7 62.55 31.8 62.55C33.9 62.55 34.9 61.95 36.1 61.25C37.5 60.45 39 59.45 42 59.45C45 59.45 46.5 60.35 47.9 61.25C49.1 61.95 50.1 62.55 52.2 62.55C54.5 62.55 55.4 61.95 56.6 61.25C58 60.45 59.5 59.45 62.5 59.45C65.5 59.45 67 60.35 68.4 61.25C69.6 61.95 70.6 62.55 72.7 62.55C74.8 62.55 75.8 61.95 77 61.25C78.4 60.45 79.9 59.45 82.9 59.45C85.9 59.45 87.4 60.35 88.8 61.25C89.9 61.95 90.9 62.55 92.7 62.55V65.65H92.8Z" fill="#8FC4E5"/>
<path d="M19 2.14995L19.6 1.54995C19.8 1.34995 20.1 1.34997 20.3 1.44997L22.5 2.84997L21.9 3.84997L20.3 2.84997L21.3 4.34997L20.3 4.94997L18.9 2.84997C18.8 2.64997 18.8 2.34995 19 2.14995Z" fill="#8FC4E5"/>
<path d="M22.8842 8.36852L22.6943 10.7611L23.7909 10.8481L23.9808 8.45554L22.8842 8.36852Z" fill="#8FC4E5"/>
<path d="M17.7 7.04999L24.6 0.15C24.8 -0.05 25.2001 -0.05 25.4001 0.15C27.5001 2.25 27.5001 5.65001 25.4001 7.85001C24.3001 8.95001 23 9.45002 21.6 9.45002C20.2 9.45002 18.8 8.95001 17.8 7.85001C17.7 7.75001 17.6 7.55002 17.6 7.45002C17.5 7.25002 17.6 7.14999 17.7 7.04999ZM24.6 7.04999C26.1 5.54999 26.3 3.15002 25 1.45002L19 7.45002C20.6 8.65002 23 8.54999 24.6 7.04999Z" fill="#8FC4E5"/>
<path d="M25.4101 7.15628L24.405 7.60333L25.9493 11.0754L26.9544 10.6283L25.4101 7.15628Z" fill="#8FC4E5"/>
<path d="M43.8 7.45001V11.55" stroke="#8FC4E5" stroke-width="1.4772" stroke-miterlimit="3.8637" stroke-linecap="round"/>
<path d="M43.9 4.04999C44.8 4.04999 45.4 4.74999 45.4 5.54999C45.4 6.44999 44.7 7.04999 43.9 7.04999C43 7.04999 42.4 6.34999 42.4 5.54999C42.3 4.74999 43 4.04999 43.9 4.04999Z" stroke="#8FC4E5" stroke-width="1.4772" stroke-miterlimit="3.8637" stroke-linecap="round" stroke-linejoin="round"/>
<path d="M50.9 23.65H19.7V26.45H50.9V23.65Z" fill="#8FC4E5"/>
<path d="M50.9 27.95H48.1V30.75H50.9V27.95Z" fill="#8FC4E5"/>
<path d="M22.4999 27.95H19.7V30.75H22.4999V27.95Z" fill="#8FC4E5"/>
<path d="M36.7 14.45H33.9V17.25H36.7V14.45Z" fill="#8FC4E5"/>
<path d="M40.9999 14.45H38.2V17.25H40.9999V14.45Z" fill="#8FC4E5"/>
<path d="M32.4 14.45H29.6V17.25H32.4V14.45Z" fill="#8FC4E5"/>
<path d="M28.2 14.45H25.4V17.25H28.2V14.45Z" fill="#8FC4E5"/>
<path d="M45.2 14.45H42.4V17.25H45.2V14.45Z" fill="#8FC4E5"/>
<path d="M62 42.15L36.8 30.75V34.05L61 45.15L62 42.15ZM23.2 13.05V18.75H47.3V13.05H23.2ZM16.9 22.95V35.35L34.8 27.35C35.2 27.15 35.6 27.15 36 27.35L53.9 35.35V22.95C53.9 22.15 53.3 21.55 52.5 21.55H49H22H18.5C17.5 21.55 16.9 22.15 16.9 22.95ZM8.69999 42.15L9.69999 45.25L33.9 34.15V30.85L8.69999 42.15ZM55.2 62.65L60.0999 47.95L36.8 37.25V54.25H34V37.25L10.7 47.95L15.5999 62.65H12.5999L5.69999 41.85C5.49999 41.15 5.79997 40.45 6.49997 40.15L14.2 36.65V22.95C14.2 20.65 16.1 18.65 18.5 18.65H20.5999V11.55C20.5999 10.75 21.2 10.15 22 10.15H34.1H36.9H49C49.8 10.15 50.4 10.75 50.4 11.55V18.65H52.5C54.8 18.65 56.8 20.55 56.8 22.95V36.65L64.5 40.15C65.2 40.45 65.5 41.25 65.3 41.85L58.4 62.65H55.2Z" fill="#8FC4E5"/>
<path d="M77.9 33.45C80.6 33.45 83.2 34.65 85 36.75C85.3 37.15 85.3 37.75 84.9 38.05C84.7 38.15 84.5 38.25 84.3 38.25C84 38.25 83.8 38.15 83.6 37.95C82.2 36.25 80.1 35.35 77.9 35.35C75.7 35.35 73.5999 36.35 72.1999 37.95C71.9999 38.15 71.8 38.25 71.5 38.25C71.3 38.25 71.1 38.15 70.9 38.05C70.5 37.75 70.5 37.15 70.8 36.75C72.6 34.65 75.2 33.45 77.9 33.45Z" fill="#8FC4E5"/>
<path d="M77.9 37.15C79.5 37.15 81.0999 37.85 82.1999 39.15C82.4999 39.55 82.5 40.15 82.1 40.45C81.9 40.55 81.7 40.65 81.5 40.65C81.2 40.65 81 40.55 80.8 40.35C80.1 39.55 79.1 39.05 78 39.05C76.9 39.05 75.8999 39.55 75.1999 40.35C74.9999 40.55 74.8 40.65 74.5 40.65C74.3 40.65 74.1 40.55 73.9 40.45C73.5 40.15 73.5 39.55 73.8 39.15C74.7 37.85 76.3 37.15 77.9 37.15Z" fill="#8FC4E5"/>
<path d="M35.2 10.85V2.45001" stroke="#8FC4E5" stroke-width="1.9386" stroke-miterlimit="3.8637" stroke-linecap="round"/>
<path d="M37.4 10.95C37.4 10.95 35.4 4.75 35.2 4.75C35 4.75 32.9 10.95 32.9 10.95" stroke="#8FC4E5" stroke-width="1.1723" stroke-miterlimit="3.8637" stroke-linecap="round"/>
</svg>
