<svg width="102" height="66" viewBox="0 0 102 66" fill="none" xmlns="http://www.w3.org/2000/svg">
<path d="M13.3 63.7392C15.9 61.7392 19.6 61.7392 22.3 63.7392C26.2 66.6392 31.6 66.6392 35.4 63.7392C38 61.7392 41.7 61.7392 44.4 63.7392C48.3 66.6392 53.7 66.6392 57.5 63.7392C60.1 61.7392 63.8 61.7392 66.5 63.7392C70.4 66.6392 75.8 66.6392 79.6 63.7392C82.2 61.7392 85.9 61.7392 88.6 63.7392C92.5 66.6392 97.9 66.6392 101.7 63.7392L99.6 61.0392C97 63.0392 93.3 63.0392 90.6 61.0392C86.7 58.1392 81.3 58.1392 77.5 61.0392C74.9 63.0392 71.2 63.0392 68.5 61.0392C66.6 59.5392 64.2 58.8392 61.9 58.8392C59.6 58.8392 57.3 59.5392 55.3 61.0392C52.7 63.0392 49 63.0392 46.3 61.0392C42.4 58.1392 37 58.1392 33.2 61.0392C30.6 63.0392 26.9 63.0392 24.2 61.0392C20.3 58.1392 14.9 58.1392 11.1 61.0392C8.49999 63.0392 4.79999 63.0392 2.09999 61.0392L0 63.7392C4.1 66.6392 9.49999 66.6392 13.3 63.7392Z" fill="#8FC4E5"/>
<path d="M45.6 27.3392H17.2V29.9392H45.6V27.3392Z" fill="#8FC4E5"/>
<path d="M45.6 31.2393H43V33.8393H45.6V31.2393Z" fill="#8FC4E5"/>
<path d="M19.8 31.2393H17.2V33.8393H19.8V31.2393Z" fill="#8FC4E5"/>
<path d="M32.7 18.9392H30.1V21.5392H32.7V18.9392Z" fill="#8FC4E5"/>
<path d="M36.6 18.9392H34V21.5392H36.6V18.9392Z" fill="#8FC4E5"/>
<path d="M28.8 18.9392H26.2V21.5392H28.8V18.9392Z" fill="#8FC4E5"/>
<path d="M25 18.9392H22.4V21.5392H25V18.9392Z" fill="#8FC4E5"/>
<path d="M40.5 18.9392H37.9V21.5392H40.5V18.9392Z" fill="#8FC4E5"/>
<path d="M55.7001 44.2392L32.7001 33.9392V36.9392L54.7001 47.0392L55.7001 44.2392ZM20.4001 17.6392V22.8392H42.4001V17.6392H20.4001ZM14.6 26.7392V38.0392L30.9001 30.7392C31.2001 30.5392 31.6001 30.5392 32.0001 30.7392L48.3 38.0392V26.7392C48.3 26.0392 47.7001 25.4392 47.0001 25.4392H43.8H19.2001H16.0001C15.2001 25.4392 14.6 26.0392 14.6 26.7392ZM7.20006 44.2392L8.10005 47.0392L30.1 36.9392V33.9392L7.20006 44.2392ZM49.5001 62.8392L54.0001 49.4392L32.8 39.7392V55.1392H30.2001V39.7392L9.00006 49.4392L13.5001 62.8392H10.8L4.50006 43.9392C4.30006 43.3392 4.60006 42.6392 5.20006 42.3392L12.2001 39.2392V26.7392C12.2001 24.6392 13.9 22.8392 16.1 22.8392H18.0001V16.3392C18.0001 15.6392 18.6 15.0392 19.3 15.0392H30.3H32.9001H43.9001C44.6001 15.0392 45.2001 15.6392 45.2001 16.3392V22.8392H47.1001C49.2001 22.8392 51.0001 24.5392 51.0001 26.7392V39.2392L58.0001 42.3392C58.6001 42.6392 58.9001 43.3392 58.7001 43.9392L52.4001 62.8392H49.5001Z" fill="#8FC4E5"/>
<path d="M56.1 41.6392V37.0392C56.1 36.2392 55.2 35.6392 54.1 35.6392C53 35.6392 52.1 36.2392 52.1 37.0392V41.6392H56.1Z" fill="#8FC4E5"/>
<path d="M54.4001 32.1392C55.3001 32.1392 56.0001 32.8392 56.0001 33.7392C56.0001 34.6392 55.3001 35.3392 54.4001 35.3392C53.5001 35.3392 52.8 34.6392 52.8 33.7392C52.8 32.8392 53.5001 32.1392 54.4001 32.1392Z" fill="#8FC4E5"/>
<path d="M40.7001 8.13922H40.3V10.0392H40.7001V8.13922Z" fill="#8FC4E5"/>
<path d="M41.1 8.63922H40.1V10.6392H41.1V8.63922Z" fill="#8FC4E5"/>
<path fill-rule="evenodd" clip-rule="evenodd" d="M40.3 8.43927C40.3 8.33927 40.4001 8.23926 40.5001 8.23926C40.6001 8.23926 40.7001 8.33927 40.7001 8.43927H40.5001H40.3Z" fill="#8FC4E5"/>
<path fill-rule="evenodd" clip-rule="evenodd" d="M34.3 2.73926H34.6001L35.0001 2.83926L35.8 7.43927L35.0001 9.23926L34.7001 9.13925H34.4001V5.93927L34.3 2.73926Z" fill="#8FC4E5"/>
<path d="M34.6 7.3392L34.7 6.93921L40 8.2392V8.13919L42.7 8.8392C42.8 8.9392 42.9 9.0392 42.9 9.2392C42.9 9.4392 42.7 9.53921 42.6 9.43921L39.9 8.7392V8.63919L34.6 7.3392Z" fill="#8FC4E5"/>
<path d="M41.5 12.2393H39.7V16.5392H41.5V12.2393Z" fill="#8FC4E5"/>
<path fill-rule="evenodd" clip-rule="evenodd" d="M29.9 4.53922C30.1 3.83922 30.3 3.83922 30.5 4.53922V15.4392H29.9V4.53922Z" fill="#8FC4E5"/>
<path d="M22.1 11.1392H21.2V16.3392H22.1V11.1392Z" fill="#8FC4E5"/>
<path d="M22.8 11.0392H19.2V11.8392H22.8V11.0392Z" fill="#8FC4E5"/>
<path fill-rule="evenodd" clip-rule="evenodd" d="M22.3 11.4392C22.3 10.8392 22.8001 10.3392 23.4001 10.3392C24.0001 10.3392 24.5001 10.8392 24.5001 11.4392C24.5001 12.0392 24.0001 12.5392 23.4001 12.5392C22.8001 12.5392 22.3 12.1392 22.3 11.4392Z" fill="#8FC4E5"/>
<path fill-rule="evenodd" clip-rule="evenodd" d="M18.7 11.4392C18.7 10.8392 19.2 10.3392 19.8 10.3392C20.4 10.3392 20.9 10.8392 20.9 11.4392C20.9 12.0392 20.4 12.5392 19.8 12.5392C19.2 12.5392 18.7 12.1392 18.7 11.4392Z" fill="#8FC4E5"/>
<path fill-rule="evenodd" clip-rule="evenodd" d="M29.2 3.73923C29.2 3.13923 29.7 2.63922 30.3 2.63922C30.9 2.63922 31.4 3.13923 31.4 3.73923C31.4 4.33923 30.9 4.83923 30.3 4.83923C29.7 4.83923 29.2 4.33923 29.2 3.73923Z" fill="#8FC4E5"/>
<path d="M27.0001 2.63924C27.3001 1.83924 27.9 1.23926 28.7 0.939258C28.8 0.839258 29 0.93924 29.1 1.13924C29.1 1.23924 29.1 1.23925 29.1 1.33925C29.1 1.43925 29 1.43923 28.9 1.53923C28.3 1.73923 27.8 2.23925 27.6 2.83925C27.4 3.43925 27.4 4.13925 27.8 4.73925C27.8 4.83925 27.8 4.93926 27.8 4.93926C27.8 5.03926 27.7 5.03923 27.7 5.03923C27.6 5.13923 27.4 5.03926 27.3 4.93926C26.8 4.23926 26.7001 3.33924 27.0001 2.63924Z" fill="#8FC4E5"/>
<path d="M28.1 3.03923C28.3 2.53923 28.6 2.23923 29.1 2.03923C29.2 1.93923 29.4 2.03924 29.5 2.23924C29.5 2.33924 29.5 2.33925 29.5 2.43925C29.5 2.53925 29.4 2.53923 29.3 2.63923C29 2.73923 28.7 3.03925 28.6 3.33925C28.5 3.63925 28.5 4.03924 28.7 4.23924C28.7 4.33924 28.7 4.43925 28.7 4.43925C28.7 4.53925 28.6 4.53923 28.6 4.53923C28.5 4.63923 28.3 4.53925 28.2 4.43925C27.9 3.93925 27.9 3.43923 28.1 3.03923Z" fill="#8FC4E5"/>
<path d="M25.9 2.13923C26.3 1.13923 27 0.439228 28 0.0392283C28.2 -0.0607717 28.4 0.0392405 28.4 0.239241C28.4 0.339241 28.4 0.439253 28.4 0.439253C28.4 0.539253 28.3 0.639234 28.2 0.639234C27.4 0.939234 26.8 1.53925 26.5 2.33925C26.2 3.13925 26.3 3.93924 26.7 4.73924C26.8 4.83924 26.8 4.93923 26.7 5.03923C26.7 5.13923 26.6 5.13924 26.5 5.23924C26.3 5.33924 26.1 5.23923 26 5.13923C25.6 4.23923 25.5 3.13923 25.9 2.13923Z" fill="#8FC4E5"/>
<path d="M41.6 14.6392V11.0392C41.6 10.4392 41.1 9.93921 40.6 9.93921C40.1 9.93921 39.6 10.4392 39.6 11.0392V14.6392H41.6Z" fill="#8FC4E5"/>
</svg>
